<svg width="40" height="40" viewBox="0 0 40 40" fill="none" xmlns="http://www.w3.org/2000/svg">
<rect width="40" height="40" rx="8.51064" fill="#AE99DD" fill-opacity="0.48"/>
<g clip-path="url(#clip0_38_212681)">
<path d="M28.6926 14.2438C27.8489 11.5156 25.627 9.2937 22.8988 8.45C21.9426 8.15464 20.9582 8 20.002 8C18.0473 8 16.1629 8.60469 14.5879 9.78598C12.2535 11.5016 10.8613 14.2438 10.8613 17.1406C10.8613 19.1375 11.4941 21.036 12.6895 22.625L20.002 32L27.3145 22.625C29.1003 20.2344 29.6066 17.1829 28.6926 14.2438ZM20.002 22.0625C17.2879 22.0625 15.0801 19.8547 15.0801 17.1406C15.0801 14.4266 17.2879 12.2188 20.002 12.2188C22.716 12.2188 24.9238 14.4266 24.9238 17.1406C24.9238 19.8547 22.716 22.0625 20.002 22.0625Z" fill="#6D45AE"/>
<path d="M12.6855 22.625L19.998 32V22.0625C17.284 22.0625 15.0762 19.8547 15.0762 17.1406C15.0762 14.4266 17.284 12.2188 19.998 12.2188V8C19.0418 8 18.0574 8.15469 17.1012 8.45C14.373 9.2937 12.1511 11.5156 11.3074 14.2437C10.3934 17.1829 10.8997 20.2344 12.6855 22.625Z" fill="#8F46DA"/>
</g>
<defs>
<clipPath id="clip0_38_212681">
<rect width="24" height="24" fill="white" transform="matrix(-1 0 0 1 32 8)"/>
</clipPath>
</defs>
</svg>
