<svg width="22" height="22" viewBox="0 0 22 22" fill="none" xmlns="http://www.w3.org/2000/svg">
<path d="M19.8654 10.1131H4.27494L8.96732 5.42068C9.05199 5.3389 9.11953 5.24107 9.16599 5.13291C9.21245 5.02475 9.23691 4.90842 9.23793 4.79071C9.23895 4.673 9.21652 4.55626 9.17195 4.44731C9.12737 4.33836 9.06154 4.23938 8.97831 4.15614C8.89507 4.0729 8.79609 4.00708 8.68714 3.9625C8.57819 3.91793 8.46145 3.89549 8.34374 3.89652C8.22602 3.89754 8.10969 3.922 8.00153 3.96846C7.89337 4.01492 7.79555 4.08246 7.71377 4.16713L1.5081 10.3728C1.3419 10.5391 1.24854 10.7645 1.24854 10.9996C1.24854 11.2347 1.3419 11.4601 1.5081 11.6263L7.71377 17.832C7.88097 17.9935 8.10491 18.0829 8.33735 18.0808C8.5698 18.0788 8.79215 17.9856 8.95652 17.8212C9.12089 17.6569 9.21412 17.4345 9.21614 17.2021C9.21816 16.9696 9.12881 16.7457 8.96732 16.5785L4.27494 11.8861H19.8654C20.1005 11.8861 20.326 11.7927 20.4922 11.6264C20.6585 11.4602 20.7519 11.2347 20.7519 10.9996C20.7519 10.7645 20.6585 10.539 20.4922 10.3727C20.326 10.2065 20.1005 10.1131 19.8654 10.1131Z" fill="#604384"/>
</svg>
