<svg width="23" height="16" viewBox="0 0 23 16" fill="none" xmlns="http://www.w3.org/2000/svg">
<path d="M6.8161 15.5075C6.62444 15.5078 6.43462 15.4702 6.25754 15.3968C6.08047 15.3235 5.91964 15.2159 5.7843 15.0802L1.4093 10.7052C1.13937 10.431 0.988741 10.0612 0.990246 9.67647C0.99175 9.29171 1.14526 8.92314 1.41733 8.65107C1.6894 8.37901 2.05798 8.2255 2.44274 8.22401C2.8275 8.22251 3.19725 8.37315 3.47143 8.64309L6.92358 12.0952L20.4879 1.24318C20.7902 1.00296 21.1754 0.892397 21.5591 0.935736C21.9428 0.979076 22.2936 1.17278 22.5347 1.47438C22.7758 1.77598 22.8875 2.16088 22.8452 2.54468C22.803 2.92848 22.6103 3.27987 22.3094 3.52183L7.72606 15.1885C7.46783 15.3952 7.14687 15.5077 6.8161 15.5075Z" fill="#8F46DA"/>
</svg>
