<svg width="11" height="10" viewBox="0 0 11 10" fill="none" xmlns="http://www.w3.org/2000/svg">
<path d="M9.16771 10C9.05808 10.0007 8.9494 9.97965 8.8479 9.93819C8.7464 9.89674 8.65409 9.83565 8.57625 9.75844L4.41101 5.5932C4.25414 5.43634 4.16602 5.22358 4.16602 5.00174C4.16602 4.89189 4.18765 4.78312 4.22969 4.68164C4.27172 4.58016 4.33334 4.48795 4.41101 4.41028C4.48868 4.3326 4.58089 4.27099 4.68237 4.22895C4.78386 4.18692 4.89263 4.16528 5.00247 4.16528C5.22431 4.16528 5.43707 4.25341 5.59394 4.41028L9.75918 8.57552C9.83726 8.65296 9.89923 8.74509 9.94152 8.84661C9.98382 8.94812 10.0056 9.05701 10.0056 9.16698C10.0056 9.27695 9.98382 9.38584 9.94152 9.48735C9.89923 9.58887 9.83726 9.681 9.75918 9.75844C9.68134 9.83565 9.58902 9.89674 9.48753 9.93819C9.38603 9.97965 9.27735 10.0007 9.16771 10Z" fill="#7E679B"/>
<path d="M0.837878 10C0.728244 10.0007 0.619562 9.97965 0.518066 9.93819C0.416569 9.89674 0.324254 9.83565 0.246414 9.75844C0.168334 9.681 0.10636 9.58887 0.0640674 9.48735C0.0217746 9.38584 0 9.27695 0 9.16698C0 9.05701 0.0217746 8.94812 0.0640674 8.84661C0.10636 8.74509 0.168334 8.65296 0.246414 8.57552L4.41165 4.41028C4.56852 4.25341 4.78128 4.16528 5.00312 4.16528C5.22496 4.16528 5.43772 4.25341 5.59458 4.41028C5.75145 4.56714 5.83958 4.7799 5.83958 5.00174C5.83958 5.22358 5.75145 5.43634 5.59458 5.5932L1.42934 9.75844C1.3515 9.83565 1.25919 9.89674 1.15769 9.93819C1.05619 9.97965 0.947513 10.0007 0.837878 10Z" fill="#7E679B"/>
<path d="M5.00389 5.83475C4.89426 5.83538 4.78558 5.81437 4.68408 5.77291C4.58259 5.73145 4.49027 5.67037 4.41243 5.59316C4.33435 5.51572 4.27238 5.42358 4.23008 5.32207C4.18779 5.22055 4.16602 5.11167 4.16602 5.0017C4.16602 4.89173 4.18779 4.78284 4.23008 4.68133C4.27238 4.57981 4.33435 4.48768 4.41243 4.41023L8.57767 0.244992C8.65534 0.16732 8.74755 0.105707 8.84904 0.0636709C8.95052 0.021635 9.05929 0 9.16914 0C9.27898 0 9.38775 0.021635 9.48923 0.0636709C9.59072 0.105707 9.68293 0.16732 9.7606 0.244992C9.83827 0.322664 9.89988 0.414874 9.94192 0.516358C9.98396 0.617841 10.0056 0.726611 10.0056 0.836456C10.0056 0.946301 9.98396 1.05507 9.94192 1.15655C9.89988 1.25804 9.83827 1.35025 9.7606 1.42792L5.59536 5.59316C5.51752 5.67037 5.4252 5.73145 5.32371 5.77291C5.22221 5.81437 5.11353 5.83538 5.00389 5.83475Z" fill="#7E679B"/>
<path d="M5.00365 5.83475C4.89402 5.83538 4.78533 5.81437 4.68384 5.77291C4.58234 5.73145 4.49003 5.67037 4.41219 5.59316L0.246945 1.42792C0.0900792 1.27105 0.00195312 1.0583 0.00195312 0.836456C0.00195313 0.614614 0.0900792 0.401858 0.246945 0.244992C0.403811 0.0881261 0.616567 4.37304e-09 0.838409 0C1.06025 -4.37304e-09 1.27301 0.0881261 1.42987 0.244992L5.59511 4.41023C5.67319 4.48768 5.73517 4.57981 5.77746 4.68133C5.81976 4.78284 5.84153 4.89173 5.84153 5.0017C5.84153 5.11167 5.81976 5.22055 5.77746 5.32207C5.73517 5.42358 5.67319 5.51572 5.59511 5.59316C5.51727 5.67037 5.42496 5.73145 5.32346 5.77291C5.22197 5.81437 5.11329 5.83538 5.00365 5.83475Z" fill="#7E679B"/>
</svg>
