<svg width="15" height="15" viewBox="0 0 15 15" fill="none" xmlns="http://www.w3.org/2000/svg">
<g clip-path="url(#clip0_314_12)">
<circle cx="8" cy="8" r="6" fill="#8F46DA"/>
<path d="M7.5 14.5313C8.89065 14.5313 10.2501 14.1189 11.4064 13.3463C12.5626 12.5737 13.4639 11.4755 13.996 10.1907C14.5282 8.90595 14.6674 7.4922 14.3961 6.12827C14.1248 4.76435 13.4552 3.5115 12.4718 2.52816C11.4885 1.54482 10.2357 0.875159 8.87173 0.603857C7.5078 0.332554 6.09405 0.471797 4.80926 1.00398C3.52446 1.53615 2.42633 2.43737 1.65373 3.59365C0.881126 4.74993 0.46875 6.10935 0.46875 7.5C0.46875 9.36481 1.20954 11.1532 2.52816 12.4718C3.84677 13.7905 5.6352 14.5313 7.5 14.5313ZM7.5 3.10313C7.68542 3.10313 7.86668 3.15811 8.02085 3.26113C8.17502 3.36414 8.29518 3.51056 8.36614 3.68186C8.43709 3.85317 8.45566 4.04167 8.41949 4.22353C8.38331 4.40538 8.29402 4.57243 8.16291 4.70354C8.0318 4.83465 7.86475 4.92394 7.6829 4.96011C7.50104 4.99629 7.31254 4.97772 7.14123 4.90676C6.96993 4.83581 6.82351 4.71565 6.7205 4.56148C6.61748 4.4073 6.5625 4.22605 6.5625 4.04063C6.5625 3.79199 6.66127 3.55353 6.83709 3.37772C7.0129 3.2019 7.25136 3.10313 7.5 3.10313ZM6.5625 7.5C6.5625 7.25136 6.66127 7.01291 6.83709 6.83709C7.0129 6.66127 7.25136 6.5625 7.5 6.5625C7.74864 6.5625 7.9871 6.66127 8.16291 6.83709C8.33873 7.01291 8.4375 7.25136 8.4375 7.5V11.25C8.4375 11.4986 8.33873 11.7371 8.16291 11.9129C7.9871 12.0887 7.74864 12.1875 7.5 12.1875C7.25136 12.1875 7.0129 12.0887 6.83709 11.9129C6.66127 11.7371 6.5625 11.4986 6.5625 11.25V7.5Z" fill="#D4CAEB"/>
</g>
<defs>
<clipPath id="clip0_314_12">
<rect width="15" height="15" fill="white"/>
</clipPath>
</defs>
</svg>
