<svg width="53" height="51" viewBox="0 0 53 51" fill="none" xmlns="http://www.w3.org/2000/svg">
<ellipse cx="26.5367" cy="25.5" rx="25.5797" ry="25.5" fill="#604384"/>
<g clip-path="url(#clip0_223_49634)">
<path d="M36.3429 19.6905V37.3429C36.3429 38.2911 35.5718 39.0622 34.6236 39.0622H18.7427C17.7944 39.0622 17.0233 38.2911 17.0233 37.3429V14.1051C17.0233 13.1569 17.7944 12.3857 18.7427 12.3857H29.0382L36.3429 19.6905Z" fill="white"/>
<path d="M21.7443 25.7803H31.623V26.8796H21.7443V25.7803Z" fill="#C1B6F2"/>
<path d="M21.7443 28.2285H31.623V29.3279H21.7443V28.2285Z" fill="#C1B6F2"/>
<path d="M21.7443 30.6836H31.623V31.783H21.7443V30.6836Z" fill="#C1B6F2"/>
<path d="M21.7443 33.1328H28.773V34.2322H21.7443V33.1328Z" fill="#C1B6F2"/>
<path opacity="0.19" d="M30.0332 19.4137L36.3428 24.525V19.7211L32.7686 17.6475L30.0332 19.4137Z" fill="black"/>
<path d="M36.3399 19.6905H30.7545C29.8063 19.6905 29.0352 18.9194 29.0352 17.9711V12.3857L36.3399 19.6905Z" fill="#C1B6F2"/>
</g>
<defs>
<clipPath id="clip0_223_49634">
<rect width="26.6765" height="26.6765" fill="white" transform="translate(13.3438 12.3857)"/>
</clipPath>
</defs>
</svg>
