<svg width="157" height="163" viewBox="0 0 157 163" fill="none" xmlns="http://www.w3.org/2000/svg">
<g clip-path="url(#clip0_135_156329)">
<path d="M95.6738 49.1777C95.5427 49.098 95.4423 49.0468 95.3525 48.9811C91.7654 46.3828 87.825 44.3112 83.6512 42.829C83.4327 42.7425 83.2095 42.6687 82.9826 42.6078C81.5578 42.2538 80.1652 41.7806 78.8197 41.1932C78.0957 40.8894 77.3233 40.7176 76.5388 40.6859C76.2247 40.6577 75.9094 40.7237 75.6329 40.8754C75.3564 41.027 75.1313 41.2576 74.9863 41.5376C74.6052 42.1373 74.4151 42.8385 74.4411 43.5486C74.4837 44.2306 74.5675 44.9094 74.6922 45.5812C74.9827 46.9226 75.0163 48.3069 74.7909 49.6608C74.6516 50.4764 74.7869 51.3151 75.1754 52.0455C75.8199 53.4119 76.7523 54.6226 77.9088 55.5947C78.0374 55.7021 78.1512 55.8272 78.3078 55.9789C77.4011 55.8384 76.5584 55.7097 75.7163 55.5769C74.5532 55.4096 73.3729 55.3976 72.2066 55.5413C71.7166 55.5746 71.2407 55.7195 70.8153 55.965C70.3899 56.2105 70.0263 56.55 69.7523 56.9576C69.3581 57.541 68.9627 58.1236 68.5605 58.7013C68.3129 59.0796 68.1833 59.523 68.1881 59.9751C68.165 60.6173 68.1049 61.2584 68.0563 61.8997C68.0371 62.1531 68.0106 62.4061 67.9804 62.6584C67.9399 63.0789 67.9913 63.5032 68.1311 63.9018C68.2709 64.3004 68.4957 64.6638 68.7901 64.9669C70.0222 66.5415 71.8104 67.5848 73.7876 67.8825C73.8614 67.9035 73.933 67.9317 74.0013 67.9665C73.9569 68.0268 73.9048 68.0809 73.8463 68.1277C72.2768 69.0459 70.7862 70.0928 69.3898 71.2575C68.6691 71.8582 67.8809 72.3731 67.0412 72.7917C66.673 72.9728 66.3164 73.1767 65.9736 73.4023C64.6351 74.2546 64.3433 76.0065 65.5257 77.44C66.0434 78.1107 66.7328 78.629 67.521 78.9398C69.9468 79.8219 72.3727 80.7071 74.8237 81.5149C76.2302 81.9464 77.694 82.162 79.1653 82.1543C79.3175 82.1568 79.4695 82.1778 79.6855 82.1954C79.6272 82.2852 79.5643 82.372 79.4972 82.4554C78.2789 83.7939 77.4243 85.4224 77.0151 87.1855C76.8575 87.8312 76.7258 88.4845 76.6125 89.1396C76.4591 90.0093 76.1359 90.8403 75.6613 91.585C75.3185 92.1321 74.9711 92.6763 74.6338 93.2267C74.1547 94.0358 73.8054 94.9151 73.5988 95.8324C73.1725 97.5802 74.7063 100.15 77.2161 99.8653C78.5014 99.7076 79.7388 99.2801 80.8473 98.6108C83.4872 97.0259 85.7821 94.9272 87.596 92.439C88.3834 91.3923 89.1348 90.3169 89.9534 89.2954C91.2823 87.7821 92.7603 86.4066 94.3651 85.1897C95.4305 84.3024 96.4921 83.4101 97.5366 82.4985C100.073 80.2846 101.005 77.4457 100.629 74.1678C100.456 72.6586 100.103 71.1702 99.8339 69.6721C99.8105 69.5415 99.8036 69.408 99.7783 69.1787C100.03 69.1578 100.284 69.1551 100.536 69.1708C100.728 69.2107 100.913 69.2766 101.087 69.3664C103.366 70.3533 105.629 71.3799 107.927 72.3219C110.704 73.3954 113.348 74.7833 115.809 76.4583C116.638 77.0465 117.485 77.6115 118.333 78.1734C120.45 79.5673 122.854 80.4648 125.367 80.7988C128.148 81.1648 130.973 80.995 133.69 80.2987C135.95 79.7432 138.155 78.9824 140.277 78.0259C142.189 77.1733 144.101 76.3222 146.014 75.4725C146.142 75.4095 146.284 75.3824 146.426 75.394C146.145 75.6276 145.855 75.8514 145.585 76.0967C144.891 76.7265 144.172 77.3341 143.523 78.0077C141.71 79.954 139.696 81.7033 137.515 83.2265C136.871 83.6711 136.198 84.0715 135.5 84.4251C132.673 85.8157 129.856 87.228 126.989 88.5312C123.182 90.204 119.757 92.6356 116.922 95.6773C115.469 97.2616 113.998 98.8297 112.542 100.411C112.373 100.601 112.224 100.808 112.098 101.028C112.062 101.076 112.039 101.131 112.028 101.19C112.017 101.248 112.02 101.308 112.036 101.365C112.052 101.422 112.081 101.475 112.12 101.52C112.159 101.564 112.208 101.599 112.263 101.622C112.443 101.543 112.66 101.465 112.86 101.355C114.653 100.351 116.521 99.4869 118.446 98.7692C120.343 98.0915 122.299 97.5938 124.289 97.2828C126.243 97.0013 128.17 96.5547 130.049 95.9476C131.301 95.4986 132.505 94.9264 133.644 94.2395C136.578 92.5179 138.707 90.0408 140.456 87.1838C141.878 84.9108 143.174 82.5622 144.341 80.1485C145.44 77.9094 147.066 75.9701 149.078 74.4969C149.993 73.8599 151.006 73.3773 152.077 73.0684C155.125 72.0001 158.31 71.3745 161.536 71.2107C170.154 71.0095 178.547 73.9733 185.127 79.5414C186.05 80.3265 186.981 81.1005 187.929 81.896C188.04 81.8498 188.141 81.808 188.236 81.7684C188.226 81.7059 188.234 81.656 188.213 81.6388C185.878 79.6489 183.615 77.5594 180.953 75.9954C174.123 71.9824 166.81 70.0788 158.862 71.0397C156.574 71.3437 154.324 71.8816 152.146 72.6449C148.898 73.7799 145.715 75.0926 142.612 76.5773C139.975 77.8647 137.229 78.9173 134.407 79.7228C131.824 80.4574 129.133 80.7327 126.455 80.5363C123.61 80.3244 120.866 79.3895 118.484 77.8203C118.028 77.5162 117.558 77.2318 117.118 76.9072C114.269 74.8278 111.153 73.1408 107.855 71.8916C106.413 71.3357 104.983 70.7478 103.566 70.1279C102.565 69.6873 101.599 69.1657 100.622 68.6712C100.475 68.6202 100.343 68.5348 100.236 68.4221C100.129 68.3094 100.051 68.1727 100.007 68.0235C100.105 67.8683 100.212 67.7191 100.327 67.5767C102.143 65.4512 104.182 63.5264 106.409 61.8355C108.223 60.5373 110.163 59.4246 112.2 58.5141C113.804 57.7905 115.376 56.9891 116.922 56.1473C117.941 55.5994 118.852 54.871 119.611 53.9974C120.013 53.5201 120.362 53.0006 120.652 52.448C120.96 51.9175 121.086 51.3011 121.012 50.6921C120.939 50.0832 120.668 49.515 120.242 49.0735C119.745 48.4645 119.1 47.9925 118.369 47.7022C117.988 47.5478 117.596 47.4227 117.196 47.3278C116.05 47.0471 115.005 46.4537 114.176 45.6136C113.286 44.7649 112.369 43.9401 111.412 43.1685C110.111 42.1565 108.665 41.3475 107.122 40.7691C105.339 40.0562 103.353 40.0376 101.556 40.7172C100.38 41.0957 99.2874 41.6936 98.3348 42.4794C97.83 42.915 97.4147 43.4445 97.112 44.0386C96.3431 45.5627 95.877 47.2214 95.7394 48.9229C95.7238 49.0093 95.7019 49.0945 95.6738 49.1777ZM74.9678 67.9679C75.3721 67.7302 75.792 67.52 76.2245 67.3387C77.5886 66.8638 78.9585 66.4013 80.3422 65.9879C82.9467 65.1308 85.6856 64.7555 88.4247 64.8805C91.2645 64.9981 94.059 65.6327 96.6711 66.7531C97.3134 67.0811 97.9356 67.4471 98.5344 67.8492C98.682 67.9319 98.7961 68.0635 98.8571 68.2213C98.9181 68.379 98.9222 68.5532 98.8688 68.7136C98.7441 69.2039 98.5731 69.6812 98.358 70.139C97.8233 71.1853 97.1423 72.15 96.3353 73.004C95.4941 73.9012 94.6303 74.7774 93.7721 75.6587C92.2772 77.1839 90.5131 78.4194 88.569 79.3032C87.2775 79.8991 85.9335 80.3902 84.5901 80.863C81.1452 82.0748 77.3894 82.0714 73.9467 80.8533C71.9821 80.1965 70.0425 79.4648 68.0922 78.7653C67.9451 78.7125 67.8025 78.6473 67.6587 78.5857C66.8468 78.2347 66.142 77.6754 65.6157 76.9645C65.4277 76.72 65.2922 76.4393 65.2176 76.1401C65.1431 75.8408 65.131 75.5294 65.1821 75.2252C65.2333 74.9211 65.3467 74.6308 65.5151 74.3724C65.6835 74.114 65.9034 73.8931 66.161 73.7236C66.5432 73.4516 66.9456 73.2094 67.3648 72.999C68.222 72.5727 69.0259 72.0467 69.7598 71.4319C71.3641 70.0905 73.1105 68.9289 74.9678 67.9679ZM99.0909 67.728C98.3542 67.2845 97.6963 66.8194 96.981 66.4723C95.4514 65.73 93.8914 65.0503 92.3453 64.342C91.4565 63.9349 90.5692 63.5247 89.6833 63.1114C86.9197 61.8403 84.5261 59.8851 82.7291 57.4307C81.2829 55.3801 79.4429 53.6379 77.3164 52.3056C76.9086 52.0373 76.5375 51.717 76.2124 51.3528C75.9335 51.0933 75.7121 50.7781 75.5625 50.4277C75.413 50.0773 75.3385 49.6994 75.344 49.3184C75.3881 47.7354 75.2419 46.1527 74.9087 44.6045C74.8283 44.2613 74.801 43.9078 74.8279 43.5564C74.8625 43.0714 74.9614 42.5932 75.122 42.1344C75.4919 41.1812 75.879 40.9415 76.8855 41.1015C77.6144 41.2354 78.3314 41.4273 79.0297 41.6753C79.9014 41.9624 80.7501 42.3188 81.6173 42.6208C82.7241 43.0062 83.8511 43.3358 84.9491 43.744C88.489 45.0701 91.8342 46.8667 94.8945 49.0856C96.5716 50.2558 97.915 51.8425 98.7924 53.6896C99.8824 56.0031 100.308 58.574 100.021 61.1152C99.9343 61.9123 99.8769 62.7134 99.7613 63.5063C99.5561 64.9151 99.3166 66.319 99.0909 67.728ZM100.213 63.8786C100.177 63.8607 100.141 63.8429 100.106 63.825C100.19 63.0101 100.264 62.1939 100.361 61.3805C100.527 59.9996 100.493 58.602 100.259 57.2308C99.9329 55.0332 99.0291 52.9616 97.6402 51.2276C97.159 50.6407 96.6213 50.1002 96.088 49.5151C96.1406 47.953 96.4819 46.414 97.0947 44.9761C97.476 43.9414 98.1528 43.0413 99.041 42.3877C99.9609 41.7543 100.976 41.2727 102.049 40.9611C103.822 40.3982 105.742 40.5239 107.427 41.3131C109.632 42.2466 111.631 43.6065 113.309 45.3146C114.446 46.5973 115.96 47.4864 117.634 47.8541C118.425 48.0288 119.145 48.4405 119.696 49.0342C120.76 50.122 120.916 51.0853 120.237 52.4393C119.682 53.5489 118.792 54.4561 117.693 55.0327C116.503 55.6253 115.242 56.063 113.941 56.3349C111.972 56.8224 109.958 57.1155 108.027 57.7715C106.872 58.1423 105.766 58.653 104.734 59.2924C103.041 60.3928 101.593 61.8299 100.479 63.5142C100.395 63.6389 100.302 63.7573 100.213 63.8786ZM99.2179 69.1165C99.3107 69.3278 99.3872 69.5459 99.4469 69.7689C99.7162 71.2671 100.051 72.7591 100.217 74.2694C100.561 77.4012 99.6706 80.1122 97.2264 82.2137C96.1013 83.1811 94.9943 84.1722 93.8323 85.0936C91.4523 86.9136 89.3831 89.1076 87.7054 91.59C87.3579 92.1107 86.9801 92.6104 86.5739 93.0867C84.7219 95.4484 82.3806 97.3813 79.7109 98.7527C78.9326 99.1221 78.0993 99.3622 77.2438 99.4635C76.7712 99.5107 76.2942 99.4455 75.8516 99.2732C75.409 99.1009 75.0135 98.8264 74.6972 98.4721C74.381 98.1178 74.153 97.6938 74.0318 97.2346C73.9107 96.7753 73.8999 96.294 74.0002 95.8298C74.2144 94.7883 74.7776 93.8511 75.5967 93.1731C76.1579 92.7198 76.7145 92.2608 77.2664 91.796C77.9526 91.2364 78.4855 90.5118 78.8153 89.6901C79.1452 88.8684 79.2611 87.9764 79.1522 87.0977C79.1063 86.5528 79.0296 86.0104 78.9885 85.4653C78.9237 84.6793 79.0855 83.8913 79.4548 83.1945C79.5828 82.8639 79.8056 82.5786 80.0954 82.3744C80.3852 82.1703 80.7289 82.0564 81.0832 82.0472C81.4931 82.0253 81.9001 81.9662 82.2993 81.8706C83.9082 81.5431 85.4804 81.0561 86.9928 80.417C88.9077 79.6714 90.7137 78.6721 92.3626 77.4458C93.6236 76.396 94.8099 75.2595 95.9129 74.0447C96.9805 73.0071 97.8835 71.8125 98.5907 70.5024C98.812 70.0744 98.9899 69.624 99.2179 69.1165ZM92.7341 64.9297L92.7148 65.051C92.5282 65.0228 92.341 64.9975 92.155 64.9659C89.7185 64.4607 87.2166 64.3509 84.7453 64.6406C81.457 65.1296 78.2504 66.0631 75.2134 67.4152C74.8952 67.5638 74.5422 67.622 74.1931 67.5833C72.4143 67.3473 70.7687 66.513 69.527 65.2177C69.0583 64.8153 68.7094 64.2916 68.5185 63.7041C68.3277 63.1166 68.3023 62.4879 68.4451 61.8869C68.5404 61.2706 68.5864 60.6477 68.5824 60.0242C68.573 59.6316 68.6795 59.2449 68.8888 58.9126C69.2986 58.3168 69.7094 57.722 70.1153 57.1236C70.3471 56.7825 70.6526 56.498 71.0092 56.291C71.3659 56.0841 71.7646 55.96 72.1757 55.9279C74.2217 55.7072 76.291 55.8773 78.2735 56.4292C78.8202 56.5801 79.3168 56.8738 79.7126 57.28C80.8509 58.4074 82.0767 59.443 83.3784 60.3772C85.681 61.9334 88.1651 63.2026 90.7755 64.1565C91.4293 64.4118 92.0813 64.6718 92.7341 64.9297ZM114.333 100.081L114.283 100.005C114.494 99.8367 114.694 99.6547 114.916 99.5032C116.285 98.5681 117.636 97.6058 119.035 96.718C120.658 95.6614 122.363 94.738 124.135 93.9568C126.201 93.0742 128.263 92.1836 130.317 91.2736C132.558 90.3354 134.621 89.0209 136.419 87.3869C139.226 84.7346 142.075 82.1105 144.258 78.8782C144.345 78.748 144.439 78.6229 144.54 78.5037C144.617 78.4136 144.713 78.3392 144.898 78.1665C144.475 78.9875 144.104 79.6737 143.763 80.3751C142.503 82.9589 141.084 85.4624 139.514 87.8712C138.237 89.9389 136.56 91.7308 134.582 93.1418C133.03 94.2351 131.327 95.096 129.527 95.6973C127.885 96.2073 126.206 96.5894 124.505 96.8402C121.487 97.2936 118.549 98.1761 115.781 99.461C115.307 99.6851 114.816 99.8752 114.333 100.081ZM145.048 76.9946C145.089 77.0261 145.131 77.0575 145.172 77.089C145.095 77.1968 145.019 77.3055 144.941 77.4122C144.387 78.1684 143.845 78.9347 143.272 79.677C142.772 80.3252 142.262 80.9687 141.712 81.574C140.911 82.4553 140.063 83.2933 139.249 84.1627C137.456 86.1789 135.396 87.9402 133.125 89.3975C131.454 90.3742 129.714 91.2282 127.919 91.9528C126.498 92.556 125.062 93.1253 123.664 93.7772C121.726 94.6658 119.86 95.7016 118.08 96.8754C116.962 97.6232 115.868 98.4081 114.769 99.1851C114.346 99.4843 113.94 99.8074 113.526 100.12C113.524 100.056 113.534 99.9924 113.557 99.9328C113.579 99.8731 113.614 99.8187 113.658 99.7727C115.226 97.9495 116.879 96.2058 118.6 94.5271C120.539 92.6178 122.771 91.0313 125.212 89.8277C128.724 88.1078 132.242 86.3978 135.754 84.6767C137.179 83.9411 138.518 83.0482 139.745 82.0145C141.329 80.7105 142.824 79.3004 144.217 77.7938C144.48 77.5146 144.77 77.2603 145.048 76.9946ZM99.4228 67.9232C99.5842 66.9975 99.7275 66.1532 99.8821 65.311C99.9133 65.1774 99.9649 65.0494 100.035 64.9315C101.29 62.549 103.193 60.57 105.524 59.2225C107.074 58.3881 108.737 57.7835 110.461 57.4277C112.073 57.0425 113.687 56.6685 115.299 56.2848C115.575 56.2193 115.844 56.1297 116.116 56.0513L116.173 56.1831C115.92 56.3118 115.669 56.4444 115.414 56.5686C113.533 57.485 111.642 58.3807 109.773 59.3198C107.318 60.5398 105.079 62.1514 103.143 64.0912C101.922 65.3207 100.728 66.5773 99.4228 67.9232ZM75.202 50.4249C75.8202 51.793 77.0103 52.5513 78.1895 53.3252C78.4958 53.5348 78.7904 53.761 79.0721 54.0028C80.3546 55.1175 81.5172 56.363 82.5411 57.7191C83.616 59.1847 84.9061 60.4795 86.3677 61.5599C86.4223 61.6036 86.4735 61.6514 86.5207 61.7031C86.402 61.7256 86.2793 61.7047 86.1748 61.6441C84.6062 60.803 83.1332 59.7945 81.7816 58.6363C80.5366 57.5112 79.3385 56.3334 78.0763 55.2283C77.1113 54.3997 76.3122 53.3956 75.7212 52.2692C75.3571 51.725 75.1753 51.0792 75.202 50.4249ZM78.5642 84.2834L78.6262 84.3528C78.6785 85.1658 78.7048 85.9815 78.7891 86.7911C78.9778 88.0602 78.7058 89.355 78.0222 90.4409C77.2636 91.4196 76.3609 92.2776 75.345 92.9856C75.3526 92.8857 75.3436 92.8418 75.3602 92.8123C75.4344 92.6748 75.5154 92.5411 75.603 92.4117C76.4108 91.2536 76.9361 89.9224 77.1367 88.5246C77.2791 87.697 77.4892 86.8824 77.7647 86.089C78 85.4738 78.2669 84.8711 78.5642 84.2834Z" fill="white" fill-opacity="0.63"/>
<path d="M71.1184 77.6585C71.592 77.8167 72.0575 78.0072 72.5405 78.128C76.2427 79.006 80.0918 79.0669 83.82 78.3064C86.3977 77.8138 88.8659 76.8621 91.1071 75.4967C93.2607 74.1804 95.167 72.4971 96.7397 70.5231C96.7634 70.4932 96.7798 70.4581 96.7875 70.4208C96.7953 70.3834 96.7942 70.3448 96.7843 70.3079C96.3692 70.7397 95.954 71.1713 95.5389 71.6029C94.3771 72.8155 93.0861 73.8974 91.6891 74.8293C90.5681 75.5801 89.3732 76.2142 88.1231 76.7215C83.5201 78.5461 78.4994 79.05 73.6256 78.1766C73.2016 78.1068 72.7807 78.0119 72.3638 77.9071C71.9559 77.8046 71.5549 77.6747 71.1508 77.5568L71.1184 77.6585Z" fill="white" fill-opacity="0.63"/>
<path d="M83.9217 45.4556C85.4296 46.195 86.9519 46.9068 88.4422 47.68C90.9195 48.9499 93.0923 50.7412 94.8113 52.9309C95.8034 54.163 96.6691 55.4918 97.3953 56.8971C97.9429 57.99 98.296 59.1804 98.7333 60.3283C98.7781 60.4994 98.867 60.6557 98.9912 60.7816C98.758 59.9996 98.5749 59.1984 98.2831 58.4389C97.0024 55.1068 94.905 52.1499 92.1836 49.8396C90.2205 48.2478 88.0166 46.9785 85.6544 46.0796C85.0825 45.8411 84.5027 45.6215 83.9265 45.3932L83.9217 45.4556Z" fill="white" fill-opacity="0.63"/>
<path d="M67.4793 74.528C68.1302 74.2718 68.7811 74.0156 69.4321 73.7595C70.6489 73.2828 71.8555 72.7774 73.0856 72.3376C75.3821 71.5192 77.7489 70.9132 80.1561 70.5272C82.6374 70.0642 85.1484 69.7774 87.6702 69.669C87.5356 69.6506 87.4016 69.622 87.2665 69.6154C85.3136 69.588 83.3624 69.7423 81.4381 70.0763C79.232 70.3562 77.0533 70.8214 74.9252 71.4668C73.9034 71.7885 72.9036 72.1814 71.8998 72.5579C71.078 72.8661 70.2611 73.1875 69.4492 73.522C68.7654 73.8031 68.0918 74.1095 67.4137 74.4046L67.4793 74.528Z" fill="white" fill-opacity="0.63"/>
<path d="M100.324 61.9911L99.8533 63.2984L99.9446 63.3544C100.095 63.0848 100.249 62.8174 100.395 62.5451C101.035 61.3125 101.783 60.1393 102.631 59.0394C103.919 57.443 105.419 56.0298 107.089 54.8386C108.382 53.9226 109.766 53.1426 111.219 52.511C112.157 52.0846 113.158 51.7977 114.131 51.4489C114.34 51.3908 114.535 51.2877 114.7 51.1468C113.848 51.4082 112.971 51.6109 112.149 51.9453C111.022 52.3919 109.923 52.9044 108.856 53.4801C105.627 55.2273 102.916 57.7962 100.998 60.927C100.888 61.0845 100.768 61.2346 100.639 61.3767L100.324 61.9911Z" fill="white" fill-opacity="0.63"/>
<path d="M100.449 73.8242C100.182 74.7035 99.969 75.5539 99.6655 76.3708C99.2489 77.3849 98.6889 78.334 98.0027 79.189C96.403 81.2602 94.4922 83.071 92.3382 84.5571C89.8954 86.3143 87.3118 87.8671 84.6138 89.1996C84.8765 89.0928 85.1405 88.9892 85.4013 88.8783C85.6757 88.7752 85.9434 88.6552 86.2029 88.5189C87.6869 87.6546 89.1736 86.7943 90.6407 85.902C92.4911 84.7783 94.2149 83.4584 95.7824 81.9652C97.4944 80.4128 98.8796 78.5346 99.8571 76.4404C100.258 75.6272 100.461 74.7308 100.449 73.8242Z" fill="white" fill-opacity="0.63"/>
<path d="M99.3932 67.4463C99.333 67.1074 99.294 66.7631 99.2089 66.4306C98.8263 65.0936 98.1738 63.8491 97.2915 62.7741C95.1873 60.0384 92.4856 57.9986 89.5708 56.213C89.3262 56.0458 89.0551 55.921 88.769 55.8439C88.9219 55.944 89.0745 56.0448 89.2279 56.1442C91.6377 57.637 93.8602 59.4127 95.8482 61.4335C97.058 62.6584 98.0328 64.095 98.7239 65.6719C98.9616 66.2429 99.1033 66.8539 99.2888 67.4466L99.3932 67.4463Z" fill="white" fill-opacity="0.63"/>
<path d="M76.2618 61.0678C78.491 61.5602 80.7256 62.0297 82.9479 62.5517C85.1573 63.1029 87.3167 63.8377 89.4037 64.7484C85.2949 62.5306 80.8049 61.6734 76.2618 61.0678Z" fill="white" fill-opacity="0.63"/>
<path d="M88.0757 48.2346C91.6991 50.2584 94.6284 52.8638 97.3326 57.675C95.6435 53.1514 90.6231 49.0837 88.0757 48.2346Z" fill="white" fill-opacity="0.63"/>
<path d="M92.7063 79.0041C88.4398 81.8614 83.7849 84.091 78.8843 85.6246C81.5501 85.3734 90.4617 81.2048 92.7063 79.0041Z" fill="white" fill-opacity="0.63"/>
<path d="M83.1168 61.7501C79.6531 60.0714 75.9257 59.003 72.0987 58.5918C75.8644 59.288 79.5541 60.3457 83.1168 61.7501Z" fill="white" fill-opacity="0.63"/>
<path d="M104.816 47.2275C102.324 50.5013 100.776 54.395 100.34 58.4862C100.451 58.0477 100.579 57.6129 100.668 57.1701C101.311 53.8787 102.567 50.7376 104.371 47.9105C104.517 47.6817 104.668 47.4551 104.816 47.2275Z" fill="white" fill-opacity="0.63"/>
<path d="M100.351 49.848C101.523 46.4096 103.26 43.3499 106.128 40.9416C106.039 40.8993 105.938 40.8898 105.843 40.9149C105.748 40.94 105.665 40.9981 105.609 41.0787C104.881 41.7814 104.19 42.5207 103.538 43.2937C102.134 45.0797 101.092 47.1218 100.469 49.3061C100.419 49.4837 100.39 49.6672 100.351 49.848Z" fill="white" fill-opacity="0.63"/>
<path d="M74.4798 98.174C76.8633 98.105 83.0662 94.5596 85.0464 92.64C83.431 93.8317 81.7355 94.9107 79.972 95.8694C78.2359 96.8461 76.393 97.6194 74.4798 98.174Z" fill="white" fill-opacity="0.63"/>
<path d="M93.9452 71.9278C91.0676 74.7043 87.4511 76.5932 83.5283 77.3683C87.5082 76.7611 91.1729 74.8471 93.9452 71.9278Z" fill="white" fill-opacity="0.63"/>
<path d="M87.3095 72.5454C83.4939 73.7823 79.6619 74.9279 75.5836 74.8241C79.6974 75.1169 83.5352 73.9899 87.3095 72.5454Z" fill="white" fill-opacity="0.63"/>
<path d="M100.325 61.9916L100.64 61.3772C100.704 61.1742 100.78 60.9749 100.866 60.7801C102.088 58.3658 103.871 56.2795 106.066 54.6961C106.418 54.4468 106.742 54.1593 107.031 53.8389C106.39 54.3106 105.729 54.7575 105.113 55.2587C103.1 56.8558 101.485 58.8983 100.396 61.2254C100.306 61.4206 100.233 61.6227 100.176 61.8297C100.166 61.8672 100.273 61.9368 100.325 61.9916Z" fill="white" fill-opacity="0.63"/>
<path d="M90.7057 84.8901C94.0928 82.805 97.0855 80.3178 99.0352 76.7637C96.8808 80.0444 94.0386 82.8173 90.7057 84.8901Z" fill="white" fill-opacity="0.63"/>
<path d="M75.088 46.0466C75.6161 46.2043 76.1486 46.3485 76.6708 46.5233C77.226 46.7091 77.7813 46.9013 78.3184 47.1327C78.8375 47.3563 79.3416 47.6189 79.8375 47.8913C80.3505 48.1731 80.8496 48.481 81.3475 48.7892C81.8255 49.085 82.2944 49.3959 82.872 49.7675C81.2306 48.1221 77.012 46.0752 75.088 46.0466Z" fill="white" fill-opacity="0.63"/>
<path d="M75.5505 64.8287C73.1443 64.4773 70.7655 63.959 68.4312 63.2775L68.3778 63.3785C68.5037 63.4626 68.6382 63.533 68.7791 63.5883C69.6642 63.8336 70.5423 64.1242 71.443 64.2877C72.6922 64.5144 73.9593 64.6429 75.219 64.8112C75.3284 64.8257 75.4399 64.8232 75.5505 64.8287Z" fill="white" fill-opacity="0.63"/>
<path d="M87.0958 64.4114C84.828 63.6042 82.4505 63.147 80.045 63.0555C82.4201 63.3673 84.7745 63.8201 87.0958 64.4114Z" fill="white" fill-opacity="0.63"/>
<path d="M76.8558 96.6051C78.7027 96.0004 80.4536 95.1344 82.0551 94.0335C81.4865 94.3231 80.9142 94.6056 80.3506 94.9044C79.7812 95.2063 79.2315 95.5471 78.6529 95.8289C78.0668 96.1143 77.4558 96.3484 76.8558 96.6051Z" fill="white" fill-opacity="0.63"/>
<path d="M78.4614 47.765C77.4766 47.2137 76.4068 46.8303 75.296 46.6306C75.594 46.8458 75.934 46.996 76.2938 47.0713C76.6592 47.2075 77.0299 47.3298 77.395 47.4668C77.7407 47.5965 78.0822 47.7372 78.4255 47.8731L78.4614 47.765Z" fill="white" fill-opacity="0.63"/>
<path d="M102.351 43.659C103.275 42.6025 104.24 41.4989 105.27 40.3213C104.107 41.2522 103.119 42.3823 102.351 43.659Z" fill="white" fill-opacity="0.63"/>
<path d="M68.5791 63.9593C69.4674 64.423 70.4457 64.6884 71.4465 64.7373C70.4907 64.478 69.5349 64.2187 68.5791 63.9593Z" fill="white" fill-opacity="0.63"/>
<path d="M86.5758 73.1751C85.5903 73.5141 84.6048 73.8531 83.6193 74.1921C84.6549 74.0217 85.6545 73.6779 86.5758 73.1751Z" fill="white" fill-opacity="0.63"/>
<path d="M188.052 70.0385C187.232 70.9029 186.427 71.7817 185.591 72.6291C182.58 75.6205 179.344 78.377 175.913 80.8745C173.321 82.7998 170.633 84.5811 167.891 86.2829C166.097 87.3968 164.328 88.5536 162.507 89.6212C159.618 91.3142 156.628 92.8182 153.609 94.2657C152.074 95.0017 150.569 95.8012 149.028 96.5238C146.814 97.5615 144.576 98.5481 142.355 99.5698C140.06 100.625 137.687 101.481 135.308 102.319C129.269 104.506 122.941 105.792 116.528 106.137C112.872 106.282 109.235 106.735 105.655 107.491C103.079 108.059 100.541 108.793 98.0594 109.689C95.3194 110.669 92.5992 111.706 89.7684 112.421C86.5167 113.205 83.1931 113.655 79.8498 113.762C77.2712 113.874 74.6915 113.959 72.1121 114.055C71.9385 114.061 71.7644 114.05 71.599 114.047C71.5779 113.985 71.5484 113.946 71.556 113.915C71.9508 112.334 71.2117 111.112 70.2091 110.053C69.4149 109.245 68.5584 108.501 67.6475 107.828C64.3668 105.358 61.3519 102.553 58.6517 99.4584C57.5177 98.1644 56.5131 96.7624 55.6524 95.2726C54.8849 93.9101 54.1102 92.5464 53.4444 91.1335C52.8963 89.9702 52.4848 88.7405 52.0467 87.528C51.6879 86.4516 51.225 85.4128 50.6646 84.4263C50.5956 84.2761 50.4957 84.1421 50.3715 84.0332C50.2472 83.9242 50.1014 83.8427 49.9435 83.7939C49.3444 83.9826 49.1255 84.1924 49.1855 84.7984C49.2583 85.5153 49.3982 86.2238 49.6034 86.9146C50.0017 88.2624 50.4844 89.5852 50.8877 90.9316C51.0348 91.4784 51.1342 92.037 51.1848 92.601C51.3428 94.2942 51.6161 95.9747 52.0026 97.6308C52.3116 98.8476 52.8848 99.9814 53.6816 100.952C53.7186 100.997 53.749 101.047 53.7719 101.101C53.7822 101.158 53.7854 101.217 53.7815 101.275C53.4676 101.19 53.1676 101.123 52.8758 101.03C49.8303 100.078 46.8394 98.9605 43.9166 97.681C40.9436 96.4139 37.8488 95.4538 34.6806 94.8157C33.3168 94.5228 31.9081 94.5065 30.5378 94.7677C28.9974 95.0519 27.7273 95.765 27.1315 97.312C26.9941 97.7161 26.9361 98.143 26.9609 98.5691C26.9776 98.8548 27.0591 99.133 27.1993 99.3825C27.3394 99.6321 27.5345 99.8465 27.7697 100.01C28.3108 100.424 28.8914 100.788 29.4594 101.167C29.6137 101.27 29.784 101.349 29.947 101.439L29.9131 101.558C29.7145 101.524 29.5153 101.493 29.3173 101.455C28.6447 101.327 27.9773 101.151 27.2988 101.08C26.7367 101.017 26.1688 101.025 25.6089 101.106C24.5511 101.267 24.1581 101.879 24.4208 102.909C24.7856 104.215 25.4594 105.414 26.3853 106.405C26.7598 106.829 27.1817 107.211 27.5756 107.619C28.5936 108.672 29.6391 109.7 30.6156 110.79C31.7362 112.044 32.941 113.22 34.2216 114.309C36.3394 115.998 38.7658 117.257 41.3652 118.018C41.5812 118.089 41.7955 118.166 42.099 118.271C41.5248 118.648 41.0358 118.959 40.5573 119.286C38.5795 120.693 36.7943 122.353 35.2472 124.223C35.0045 124.504 34.7544 124.78 34.5233 125.071C33.6739 126.145 32.6844 127.101 31.5813 127.912C31.097 128.276 30.6681 128.708 30.3077 129.194C29.9333 129.691 29.7393 130.3 29.7577 130.921C29.7761 131.543 30.0058 132.139 30.4089 132.613C30.8462 133.167 31.4037 133.614 32.0392 133.921C34.2768 135.036 36.5714 134.949 38.8971 134.273C39.2334 134.175 39.5617 134.05 39.9383 133.922C39.9297 134.018 39.9432 134.094 39.915 134.149C39.3008 135.484 38.844 136.885 38.5538 138.325C38.407 138.911 38.1949 139.481 37.9964 140.053C37.6386 140.974 36.9605 141.736 36.0866 142.198C35.7729 142.357 35.4803 142.555 35.2156 142.787C34.9103 143.083 34.6622 143.433 34.4838 143.82C34.3439 144.117 34.3204 144.456 34.4179 144.769C34.5153 145.083 34.7267 145.348 35.0104 145.514C35.7057 146.001 36.5379 146.254 37.3864 146.236C38.4254 146.246 39.4584 146.077 40.4399 145.737C43.1415 144.785 45.6145 143.28 47.7005 141.318C50.1854 139.016 52.3639 136.404 54.1821 133.547C55.6557 131.309 57.103 129.054 58.6081 126.837C59.7708 125.142 61.1726 123.624 62.7699 122.33C63.9486 121.425 65.2271 120.657 66.5803 120.042C67.5955 119.58 68.538 118.972 69.3781 118.238C70.4178 117.272 71.2602 116.192 71.3824 114.703C71.3868 114.65 71.4266 114.599 71.4708 114.5C71.7039 114.486 71.953 114.468 72.2024 114.457C75.6205 114.305 79.0411 114.196 82.4562 113.994C86.4193 113.709 90.3252 112.887 94.0665 111.549C96.2846 110.79 98.4788 109.959 100.705 109.225C104.142 108.088 107.694 107.338 111.297 106.989C114.119 106.717 116.948 106.523 119.772 106.269C123.591 105.931 127.365 105.192 131.031 104.064C133.495 103.304 135.94 102.485 138.367 101.607C139.947 101.038 141.489 100.356 143.025 99.671C145.276 98.6674 147.531 97.6655 149.74 96.5749C153.584 94.6784 157.423 92.7695 161.206 90.7572C163.291 89.6478 165.266 88.3287 167.278 87.0823C168.774 86.1554 170.259 85.2115 171.728 84.2428C174.275 82.563 176.73 80.7555 179.122 78.8608C182.2 76.4146 185.098 73.7498 187.793 70.8873C187.939 70.733 188.107 70.6 188.265 70.457C188.194 70.3175 188.123 70.178 188.052 70.0385ZM32.8974 102.461L32.9474 102.245C32.7826 102.168 32.6204 102.085 32.4525 102.016C31.5491 101.642 30.6184 101.323 29.7486 100.883C29.0896 100.543 28.4738 100.125 27.9143 99.638C27.6019 99.3774 27.3863 99.0194 27.3022 98.6214C27.218 98.2234 27.2703 97.8087 27.4505 97.444C27.669 96.8952 28.018 96.408 28.4673 96.0246C28.9165 95.6411 29.4526 95.3731 30.0289 95.2436C31.4533 94.8582 32.9492 94.8186 34.3921 95.1281C37.3894 95.7174 40.3243 96.5889 43.1576 97.7309C44.8769 98.436 46.5909 99.1551 48.3212 99.8324C50.5118 100.679 52.7437 101.414 55.0083 102.036C56.4829 102.428 57.9306 102.915 59.3422 103.495C62.856 104.995 66.1325 106.999 69.0685 109.444C69.8987 110.104 70.5657 110.946 71.0179 111.905C71.2838 112.425 71.3573 113.022 71.2256 113.591C71.0938 114.16 70.7651 114.664 70.2977 115.014C69.7639 115.439 69.1558 115.762 68.5043 115.965C67.2593 116.297 65.9962 116.557 64.7213 116.744C62.767 117.016 60.8353 117.431 58.9416 117.985C57.7206 118.399 56.466 118.707 55.1918 118.905C49.849 119.616 44.413 118.923 39.419 116.895C37.6062 116.202 35.9185 115.218 34.4225 113.981C33.1312 112.875 31.9156 111.683 30.7841 110.413C29.849 109.365 28.8549 108.367 27.8543 107.381C27.0089 106.596 26.2562 105.716 25.6107 104.76C25.175 104.107 24.8783 103.371 24.7391 102.599C24.6985 102.475 24.6868 102.344 24.705 102.216C24.7232 102.087 24.7708 101.965 24.844 101.857C24.9172 101.75 25.0142 101.661 25.1273 101.598C25.2405 101.534 25.3667 101.497 25.4964 101.49C25.9963 101.407 26.5039 101.38 27.0099 101.408C27.4776 101.448 27.9417 101.524 28.3983 101.633C29.7027 101.896 31.0042 102.172 32.3089 102.433C32.5041 102.457 32.7008 102.467 32.8974 102.461ZM70.8442 115.156C70.8176 115.67 70.6348 116.164 70.3203 116.573C69.4309 117.899 68.1662 118.929 66.6879 119.533C65.1426 120.186 63.5438 120.712 61.9683 121.293C60.5939 121.801 59.2091 122.282 57.8475 122.821C56.5938 123.318 55.3684 123.886 54.1242 124.407C49.9952 126.165 46.1843 128.591 42.8447 131.589C41.3493 132.957 39.4951 133.871 37.4992 134.223C35.6426 134.613 33.7085 134.352 32.0219 133.483C31.2583 133.11 30.6519 132.479 30.3108 131.701C30.1155 131.31 30.0594 130.865 30.1517 130.439C30.2439 130.013 30.4791 129.631 30.8182 129.356C31.314 128.978 31.8511 128.657 32.4191 128.399C33.3529 127.956 34.3303 127.604 35.2622 127.156C36.2431 126.697 37.0758 125.972 37.666 125.064C38.2918 124.096 38.9079 123.119 39.4832 122.12C40.0416 121.11 40.7146 120.167 41.4889 119.311C41.6898 119.098 41.9088 118.904 42.1432 118.729C42.2893 118.613 42.4617 118.535 42.6452 118.503C42.8286 118.471 43.0173 118.484 43.1941 118.543C46.1519 119.317 49.2072 119.654 52.2627 119.543C54.0051 119.545 55.7392 119.303 57.4143 118.823C58.9499 118.372 60.4915 117.925 62.0539 117.584C63.5408 117.26 65.0594 117.082 66.5616 116.826C68.0916 116.564 69.5926 116.219 70.8442 115.156ZM63.815 121.166C63.6932 121.246 63.6035 121.307 63.5122 121.365C63.4131 121.428 63.307 121.481 63.2131 121.55C61.6516 122.664 60.2694 124.01 59.1141 125.542C57.8027 127.342 56.5412 129.178 55.3295 131.051C53.7751 133.585 52.0387 136.003 50.134 138.286C47.8675 141.02 45.0437 143.238 41.8513 144.792C40.526 145.431 39.083 145.789 37.6128 145.844C36.8451 145.894 36.0802 145.712 35.4177 145.321C35.2588 145.251 35.1182 145.145 35.0071 145.012C34.896 144.879 34.8174 144.721 34.7775 144.552C34.7375 144.384 34.7374 144.208 34.777 144.039C34.8166 143.87 34.8949 143.712 35.0058 143.579C35.1692 143.337 35.3697 143.123 35.5999 142.944C36.3965 142.376 37.2853 141.949 38.2271 141.683C39.2756 141.313 40.3253 140.945 41.362 140.544C43.1909 139.828 44.8331 138.706 46.1641 137.262C47.5657 135.765 48.9016 134.206 50.2428 132.653C51.686 130.982 53.0258 129.208 54.7196 127.78C56.9706 125.882 59.272 124.043 61.588 122.225C62.1991 121.644 62.9791 121.274 63.815 121.166ZM61.4583 121.846L61.4669 121.916C60.2734 122.823 59.0799 123.73 57.8865 124.637C55.3062 126.569 52.9598 128.795 50.8947 131.27C49.4699 133.005 47.9745 134.682 46.5033 136.379C44.1615 139.08 41.1299 140.587 37.6996 141.444C37.7142 141.385 37.7353 141.328 37.7625 141.274C38.2996 140.455 38.6838 139.545 38.8965 138.588C39.0483 137.961 39.1676 137.322 39.3735 136.713C39.6667 135.845 40.0117 134.993 40.3633 134.147C40.5352 133.771 40.8193 133.458 41.1764 133.251C41.8083 132.864 42.4111 132.432 42.9799 131.957C46.0779 129.198 49.5721 126.918 53.3461 125.194C54.9304 124.48 56.5334 123.806 58.1388 123.14C59.2355 122.685 60.3512 122.276 61.4583 121.846ZM63.8293 105.206L63.7571 105.272C63.6702 105.231 63.5804 105.195 63.4967 105.148C60.8961 103.659 58.1198 102.5 55.2323 101.698C54.8807 101.584 54.5641 101.383 54.3124 101.112C53.4526 100.222 52.8248 99.1349 52.4843 97.9453C52.0635 96.3786 51.7756 94.7792 51.6238 93.1641C51.5639 92.4247 51.4467 91.691 51.2734 90.9697C50.8802 89.6011 50.3732 88.2657 49.9561 86.9034C49.7656 86.2491 49.6208 85.5823 49.5228 84.9079C49.4764 84.616 49.4905 84.2628 49.9629 84.1541C50.1173 84.2875 50.2545 84.4397 50.3712 84.6072C50.6799 85.1514 50.9564 85.7133 51.1992 86.29C51.8507 87.9431 52.4421 89.6201 53.1024 91.2695C54.1323 93.7032 55.4686 95.9956 57.0788 98.091C58.9344 100.535 61.0438 102.776 63.3716 104.776C63.5283 104.915 63.6769 105.063 63.8293 105.206ZM40.5798 119.811C40.5219 119.902 40.4647 119.994 40.4061 120.085C39.91 120.856 39.4113 121.625 38.918 122.398C38.3927 123.221 37.9084 124.073 37.3373 124.863C36.963 125.385 36.5195 125.855 36.0188 126.258C34.8743 127.079 33.6033 127.708 32.256 128.119C32.1452 128.15 32.0322 128.173 31.918 128.187C32.8649 127.449 33.7295 126.612 34.4969 125.689C35.3459 124.694 36.2132 123.714 37.0988 122.751C38.1275 121.625 39.2976 120.637 40.5798 119.811Z" fill="white" fill-opacity="0.63"/>
<path d="M67.5489 118.435C65.2196 119.448 62.8174 120.285 60.3627 120.938C57.8851 121.632 55.4011 122.313 52.956 123.11C51.2719 123.671 49.6202 124.324 48.0083 125.068C46.3918 125.801 44.8123 126.628 43.2655 127.501C41.3658 128.542 39.5292 129.694 37.7654 130.951C37.6491 131.034 37.5608 131.15 37.5125 131.284C38.0117 130.974 38.5109 130.664 39.01 130.354C39.6727 129.943 40.327 129.517 41.0003 129.124C42.2314 128.404 43.459 127.676 44.7159 127.004C45.8693 126.387 47.0474 125.812 48.2369 125.267C49.1938 124.829 50.17 124.423 51.1626 124.074C52.725 123.525 54.299 123.009 55.8847 122.527C58.3838 121.768 60.9068 121.088 63.3973 120.304C64.8528 119.854 66.2473 119.226 67.5489 118.435Z" fill="white" fill-opacity="0.63"/>
<path d="M37.2978 98.5861C38.8658 99.1357 40.4174 99.7385 42.0049 100.224C46.1381 101.489 50.2952 102.676 54.4257 103.949C56.1806 104.49 57.9033 105.141 59.6222 105.791C62.3386 106.86 64.8701 108.349 67.1239 110.205C67.3172 110.359 67.5166 110.506 67.7132 110.656L67.7939 110.566C67.6455 110.426 67.5004 110.282 67.3481 110.147C64.6143 107.757 61.42 105.954 57.9622 104.846C54.7553 103.773 51.509 102.813 48.267 101.848C44.6137 100.76 40.9458 99.7208 37.2842 98.6607L37.2978 98.5861Z" fill="white" fill-opacity="0.63"/>
<path d="M57.0387 113.262C56.1757 113.107 55.3142 112.941 54.4492 112.797C48.3372 111.847 42.3529 110.206 36.6113 107.905C34.3357 106.966 32.1063 105.915 29.856 104.914C29.7695 104.876 29.6848 104.834 29.5038 104.748C30.79 105.803 38.7161 109.158 42.8543 110.42C47.4693 111.848 52.2074 112.842 57.007 113.39L57.0387 113.262Z" fill="white" fill-opacity="0.63"/>
<path d="M54.6729 110.365C58.4085 111.911 68.7461 114.066 70.7641 113.657C69.4199 113.479 68.071 113.329 66.7328 113.114C65.3623 112.893 63.9973 112.63 62.6392 112.343C61.3 112.059 59.9692 111.733 58.6406 111.402C57.3143 111.071 55.9951 110.712 54.6729 110.365Z" fill="white" fill-opacity="0.63"/>
<path d="M54.9727 131.499C51.471 135.441 47.8852 139.229 43.4097 141.845C44.5638 141.334 45.6509 140.683 46.6468 139.907C49.621 137.653 52.2839 135.016 54.5662 132.063C54.7093 131.881 54.8375 131.687 54.9727 131.499Z" fill="white" fill-opacity="0.63"/>
<path d="M53.5847 94.6523C54.2766 96.1169 55.2105 97.4543 56.3472 98.6084C58.4877 100.996 60.9448 103.079 63.6502 104.801C63.6949 104.833 63.7468 104.855 63.8015 104.863C63.8563 104.872 63.9122 104.867 63.9646 104.849C63.6962 104.648 63.4328 104.441 63.1585 104.249C60.8997 102.672 58.8034 100.875 56.9003 98.8831C55.6349 97.6061 54.5222 96.1863 53.5847 94.6523Z" fill="white" fill-opacity="0.63"/>
<path d="M47.5538 137.755C51.3786 135.163 54.2682 131.654 56.9297 127.923C56.8147 128.05 56.6981 128.175 56.5852 128.304C56.4696 128.437 56.3546 128.569 56.2447 128.706C54.5364 130.888 52.6927 132.96 50.7243 134.911C49.704 135.897 48.613 136.81 47.5538 137.755Z" fill="white" fill-opacity="0.63"/>
<path d="M41.8186 123.182C43.6823 122.625 45.532 122.014 47.4137 121.527C49.2958 121.039 51.21 120.674 53.1004 120.218C49.2181 120.665 45.4193 121.663 41.8186 123.182Z" fill="white" fill-opacity="0.63"/>
<path d="M41.64 110.994C44.7296 112.097 47.9338 112.847 51.1917 113.231L51.2172 113.114C50.161 112.92 49.1013 112.743 48.0495 112.527C46.9579 112.303 45.8712 112.053 44.7875 111.794C43.735 111.541 42.6889 111.262 41.64 110.994Z" fill="white" fill-opacity="0.63"/>
<path d="M66.4986 110.529C64.2312 108.537 60.2844 106.353 57.9572 105.773C60.9908 106.998 63.86 108.595 66.4986 110.529Z" fill="white" fill-opacity="0.63"/>
<path d="M59.2341 120.687C60.7492 120.675 65.3178 118.977 67.0577 117.901C64.5135 119 61.9 119.93 59.2341 120.687Z" fill="white" fill-opacity="0.63"/>
<path d="M55.075 98.5187C56.6435 100.227 58.4285 101.722 60.3848 102.967C58.6318 101.498 56.8787 100.03 55.075 98.5187Z" fill="white" fill-opacity="0.63"/>
</g>
<defs>
<clipPath id="clip0_135_156329">
<rect width="170.604" height="90.4987" fill="white" transform="matrix(-0.873743 0.486387 0.486387 0.873743 149.062 0)"/>
</clipPath>
</defs>
</svg>
