<svg width="143" height="91" viewBox="0 0 143 91" fill="none" xmlns="http://www.w3.org/2000/svg">
<g clip-path="url(#clip0_135_156370)">
<path d="M42.5649 17.0015C42.6407 16.8681 42.7035 16.7746 42.75 16.6735C44.6205 12.6586 47.0557 8.9319 49.9817 5.60672C50.1305 5.42497 50.2896 5.2519 50.4583 5.08835C51.531 4.08598 52.5176 2.99519 53.4075 1.8275C53.8923 1.20998 54.4837 0.684169 55.1537 0.274915C55.4144 0.0975162 55.7221 0.00174028 56.0374 -0.000213637C56.3528 -0.00216755 56.6616 0.0897889 56.9245 0.263943C57.5491 0.602563 58.0563 1.12278 58.3789 1.75581C58.6734 2.37242 58.9303 3.0063 59.1482 3.65397C59.5468 4.96731 60.1908 6.19314 61.0462 7.26648C61.5646 7.91131 61.8544 8.70994 61.8701 9.53717C61.9716 11.0445 61.7458 12.5559 61.2082 13.9677C61.148 14.1241 61.1094 14.2888 61.0464 14.4974C61.7703 13.9337 62.444 13.4113 63.1152 12.8857C64.0501 12.1738 65.0755 11.5893 66.1644 11.1476C66.6087 10.9383 67.0951 10.8335 67.5861 10.8411C68.0772 10.8487 68.5601 10.9685 68.9978 11.1913C69.6259 11.5093 70.2548 11.826 70.8872 12.1352C71.2875 12.3453 71.6164 12.6696 71.8321 13.067C72.1647 13.6169 72.529 14.1478 72.8834 14.6845C73.0233 14.8966 73.1696 15.1047 73.3187 15.3105C73.5586 15.6582 73.7201 16.0539 73.7918 16.4702C73.8635 16.8865 73.8439 17.3134 73.7341 17.7213C73.4234 19.6965 72.3684 21.4778 70.7857 22.6995C70.7314 22.7538 70.6826 22.8132 70.6398 22.877C70.7079 22.908 70.7798 22.93 70.8536 22.9424C72.6716 22.9812 74.4832 23.1709 76.2697 23.5095C77.1917 23.6838 78.1307 23.7503 79.068 23.7077C79.4779 23.6867 79.8886 23.6915 80.2978 23.7219C81.8819 23.8155 82.9889 25.2042 82.6531 27.0319C82.527 27.8697 82.1767 28.6579 81.6392 29.3128C79.9487 31.2634 78.2596 33.2168 76.511 35.1147C75.492 36.1759 74.3178 37.0763 73.0286 37.7851C72.8968 37.8613 72.7742 37.9536 72.594 38.074C72.6886 38.1241 72.7858 38.1694 72.885 38.2097C74.6005 38.7865 76.1393 39.7938 77.3544 41.1352C77.8062 41.6228 78.239 42.1295 78.6566 42.6468C79.2136 43.3321 79.9002 43.901 80.6772 44.3208C81.2427 44.6321 81.811 44.9386 82.3734 45.2555C83.1856 45.7294 83.9184 46.3278 84.5451 47.0288C85.7677 48.3486 85.6775 51.3401 83.346 52.3119C82.1464 52.7993 80.8572 53.0277 79.5631 52.982C76.4856 52.8812 73.4597 52.1636 70.6647 50.8719C69.4675 50.3403 68.288 49.7662 67.0758 49.2718C65.1787 48.5959 63.2182 48.1129 61.2242 47.8303C59.8617 47.5731 58.5002 47.3099 57.1442 47.0214C53.8511 46.3208 51.6564 44.2934 50.3902 41.2466C49.8072 39.8439 49.3918 38.3718 48.8983 36.9318C48.8553 36.8063 48.7963 36.6863 48.7069 36.4737C48.4765 36.578 48.254 36.6988 48.0411 36.8353C47.8931 36.9633 47.7633 37.1109 47.6551 37.274C46.1434 39.245 44.6653 41.2428 43.1157 43.1835C41.212 45.4719 39.5765 47.9708 38.2411 50.6312C37.8023 51.5486 37.3377 52.454 36.8702 53.3572C35.6983 55.6049 34.0337 57.5587 32.0007 59.0727C29.749 60.7451 27.198 61.9709 24.4853 62.6839C22.2402 63.298 19.9436 63.7057 17.6243 63.9021C15.5396 64.0868 13.4549 64.2732 11.3704 64.4611C11.228 64.4683 11.0901 64.514 10.9715 64.5933C11.3307 64.6607 11.6929 64.7153 12.0484 64.7981C12.9612 65.0108 13.8845 65.1921 14.7797 65.4648C17.3106 66.2835 19.9209 66.8325 22.5672 67.1026C23.3462 67.1778 24.1294 67.2001 24.9114 67.1695C28.0572 67.0099 31.2059 66.8734 34.3446 66.6177C38.4843 66.2277 42.66 66.6862 46.6165 67.965C48.6566 68.6426 50.7043 69.2974 52.7458 69.9707C52.9858 70.0545 53.2164 70.1627 53.4342 70.2937C53.4881 70.3185 53.5357 70.3552 53.5734 70.4011C53.6112 70.447 53.638 70.5008 53.6519 70.5585C53.6658 70.6162 53.6664 70.6764 53.6537 70.7344C53.641 70.7924 53.6154 70.8467 53.5786 70.8934C53.3831 70.9113 53.1551 70.9497 52.9271 70.9504C50.8721 70.9456 48.8198 71.0986 46.7882 71.4081C44.8016 71.7383 42.8505 72.2549 40.9607 72.9509C39.1161 73.6556 37.2151 74.2026 35.2781 74.5861C33.9658 74.8028 32.6352 74.8886 31.306 74.8424C27.9055 74.765 24.8404 73.6361 21.9223 71.9907C19.5748 70.6961 17.2994 69.2748 15.1062 67.7331C13.0567 66.3114 10.6932 65.4076 8.21795 65.0993C7.10899 64.9876 5.98921 65.0586 4.90326 65.3096C1.72054 65.8587 -1.36698 66.8614 -4.26497 68.2872C-11.8926 72.303 -17.7843 78.9748 -20.8258 87.0406C-21.25 88.1753 -21.6876 89.3048 -22.1283 90.4605C-22.2481 90.4743 -22.3565 90.4868 -22.4589 90.4985C-22.4808 90.4391 -22.5115 90.3992 -22.5022 90.3743C-21.4293 87.4995 -20.4683 84.5733 -18.9032 81.912C-14.8873 75.0835 -9.42347 69.8633 -2.01183 66.8372C0.134736 65.9903 2.36251 65.3657 4.63651 64.9734C8.0264 64.3853 11.4461 63.9842 14.88 63.7718C17.8104 63.614 20.7212 63.1983 23.5786 62.5296C26.1926 61.9152 28.6784 60.8465 30.9228 59.3723C33.3054 57.8035 35.2478 55.6522 36.5661 53.1224C36.8163 52.6351 37.0886 52.158 37.3156 51.6602C38.7935 48.4576 40.6951 45.4683 42.9695 42.7724C43.9591 41.5853 44.9223 40.3763 45.8588 39.1455C46.5193 38.2735 47.1095 37.348 47.7226 36.4407C47.8261 36.3248 47.9003 36.1858 47.939 36.0352C47.9777 35.8847 47.9798 35.7271 47.945 35.5757C47.7842 35.4876 47.6183 35.4092 47.4482 35.3409C44.8274 34.3671 42.1097 33.6771 39.3418 33.2827C37.1252 33.0308 34.8888 33.0022 32.6664 33.1973C30.9132 33.3451 29.1495 33.4097 27.3897 33.4259C26.2326 33.4429 25.0821 33.2497 23.994 32.8556C23.4107 32.6341 22.8531 32.3499 22.3311 32.0081C21.8041 31.6942 21.3937 31.2172 21.1621 30.6492C20.9305 30.0812 20.8903 29.4532 21.0476 28.8603C21.1863 28.0861 21.5202 27.3601 22.0177 26.7509C22.2754 26.4308 22.557 26.1307 22.8603 25.8533C23.7251 25.0507 24.3499 24.0237 24.6652 22.8867C25.0298 21.7124 25.4305 20.5453 25.8913 19.4058C26.5352 17.8891 27.4053 16.4788 28.4721 15.223C29.6837 13.7325 31.4101 12.7503 33.3104 12.4703C34.5215 12.2292 35.7674 12.22 36.982 12.4432C37.6349 12.5782 38.2553 12.839 38.8087 13.2108C40.2218 14.1685 41.4359 15.3911 42.3837 16.8108C42.4393 16.8788 42.4999 16.9425 42.5649 17.0015ZM69.796 23.3482C69.3271 23.3372 68.858 23.3577 68.3919 23.4097C66.9691 23.6582 65.5472 23.9205 64.1371 24.2323C61.4445 24.7501 58.8689 25.7544 56.5365 27.1959C54.1124 28.6799 51.9794 30.5936 50.242 32.843C49.8404 33.442 49.4747 34.0645 49.1471 34.707C49.0584 34.851 49.0227 35.0215 49.0461 35.1891C49.0695 35.3566 49.1506 35.5107 49.2754 35.6249C49.6228 35.9927 50.0043 36.3265 50.415 36.6219C51.391 37.276 52.4553 37.7877 53.5758 38.1414C54.7472 38.5161 55.9281 38.8615 57.1066 39.2142C59.1546 39.8197 61.2969 40.0412 63.4254 39.8678C64.8437 39.7603 66.2568 39.5357 67.6606 39.2953C71.2599 38.6786 74.5399 36.8489 76.9554 34.1101C78.3526 32.5807 79.6914 30.998 81.0552 29.4381C81.1581 29.3206 81.2509 29.1941 81.3466 29.0704C81.8853 28.3688 82.2291 27.5374 82.3432 26.6602C82.3885 26.3551 82.3704 26.044 82.29 25.7462C82.2096 25.4485 82.0687 25.1705 81.876 24.9296C81.6834 24.6888 81.4431 24.4903 81.1703 24.3464C80.8975 24.2026 80.5979 24.1166 80.2903 24.0937C79.8242 24.0419 79.3547 24.026 78.8861 24.0461C77.9298 24.0906 76.9715 24.0219 76.0313 23.8417C73.9771 23.4501 71.8862 23.2846 69.796 23.3482ZM48.6019 34.8718C49.0299 34.126 49.3785 33.3995 49.8346 32.7484C50.8101 31.3558 51.8425 30.0032 52.849 28.6323C53.4275 27.8443 54.0033 27.0543 54.5763 26.2623C56.3728 23.8076 57.5131 20.935 57.8894 17.9165C58.1557 15.4213 58.916 13.0041 60.126 10.8057C60.3518 10.3729 60.5203 9.91259 60.6271 9.43628C60.7446 9.07384 60.7847 8.69079 60.745 8.31186C60.7053 7.93294 60.5865 7.56656 60.3964 7.23637C59.5879 5.8746 58.9459 4.4207 58.484 2.90587C58.3873 2.5669 58.2392 2.24478 58.0447 1.95077C57.7787 1.54386 57.4597 1.17414 57.0961 0.851351C56.3093 0.19845 55.8545 0.177295 55.0529 0.806676C54.4812 1.27815 53.9481 1.79452 53.4586 2.35087C52.8365 3.02577 52.2683 3.74996 51.6575 4.43561C50.8779 5.31064 50.0536 6.1468 49.2927 7.03753C46.8448 9.91791 44.7958 13.1148 43.201 16.5421C42.3049 18.3802 41.9029 20.42 42.0346 22.4607C42.2075 25.0122 43.0864 27.4654 44.5732 29.5462C45.0363 30.2006 45.4762 30.8726 45.9627 31.5091C46.8273 32.6403 47.7194 33.7505 48.6019 34.8718ZM45.7492 32.0541C45.7718 32.0212 45.7943 31.9882 45.8168 31.9552C45.3467 31.2842 44.8849 30.6072 44.4046 29.9436C43.5882 28.8175 42.9385 27.5797 42.4754 26.2682C41.6916 24.1894 41.4737 21.9397 41.8439 19.7491C41.9788 19.0023 42.1858 18.2684 42.3671 17.4978C41.5614 16.1585 40.5146 14.9799 39.2799 14.0216C38.4434 13.3029 37.4143 12.8457 36.3203 12.7066C35.2085 12.6006 34.087 12.6737 32.9984 12.9231C31.1753 13.2937 29.5587 14.3375 28.4705 15.8465C26.998 17.7346 25.9129 19.895 25.2775 22.2036C24.9081 23.8773 24.0173 25.3908 22.7333 26.5264C22.1271 27.0639 21.6989 27.7733 21.506 28.5602C21.1057 30.028 21.4379 30.9456 22.6893 31.7986C23.7144 32.498 24.9332 32.8577 26.1737 32.8272C27.5015 32.7662 28.816 32.5354 30.0851 32.1402C32.0425 31.6085 33.9454 30.8846 35.951 30.5189C37.141 30.2809 38.3557 30.1893 39.5679 30.2462C41.5825 30.3841 43.5472 30.9352 45.3397 31.8651C45.4736 31.9332 45.6126 31.9914 45.7492 32.0541ZM49.1663 36.1467C49.188 36.3765 49.2272 36.6043 49.2835 36.8281C49.7769 38.2682 50.21 39.7347 50.7996 41.135C52.0222 44.0388 54.1189 45.9744 57.2767 46.6217C58.7303 46.9197 60.1795 47.2472 61.6429 47.4872C64.6077 47.9198 67.4828 48.8303 70.1561 50.1833C70.713 50.4692 71.2862 50.7221 71.8727 50.9407C74.6396 52.1034 77.6254 52.6535 80.6251 52.5532C81.4848 52.4975 82.3296 52.302 83.1264 51.9743C83.5623 51.7857 83.9474 51.4967 84.2503 51.1309C84.5532 50.7651 84.7653 50.3329 84.8693 49.8695C84.9733 49.4061 84.9662 48.9247 84.8487 48.4645C84.7312 48.0044 84.5066 47.5785 84.1931 47.2217C83.4994 46.4159 82.5514 45.8709 81.506 45.677C80.7951 45.5539 80.0856 45.4235 79.3773 45.2859C78.5056 45.1307 77.6875 44.7568 76.9996 44.1992C76.3118 43.6417 75.7767 42.9187 75.4444 42.098C75.2195 41.5996 75.0226 41.0883 74.7934 40.5921C74.4678 39.8738 73.9431 39.264 73.2815 38.8348C73.0089 38.6082 72.6754 38.4673 72.3229 38.4298C71.9704 38.3924 71.6148 38.4601 71.3007 38.6244C70.9319 38.8046 70.5475 38.9509 70.1522 39.0616C68.5872 39.5579 66.9766 39.8972 65.3443 40.0743C63.3086 40.3543 61.2445 40.3596 59.2073 40.09C57.5949 39.7861 56.0056 39.3702 54.451 38.8453C53.0135 38.4579 51.6435 37.8534 50.3884 37.0526C49.9869 36.7863 49.6123 36.4793 49.1663 36.1467ZM52.7951 29.335L52.8709 29.4315C53.0202 29.3161 53.1715 29.203 53.3187 29.0849C55.2018 27.4584 57.3344 26.1456 59.6346 25.1967C62.7456 24.0246 66.0013 23.2805 69.3126 22.9848C69.6629 22.9598 69.9996 22.8389 70.2858 22.6354C71.7252 21.564 72.7573 20.0347 73.2122 18.2989C73.426 17.7193 73.4762 17.0921 73.3571 16.4859C73.2381 15.8798 72.9545 15.3181 72.5374 14.8624C72.1544 14.3703 71.8113 13.8484 71.5114 13.3017C71.3287 12.9541 71.0476 12.668 70.7031 12.4794C70.0553 12.1582 69.407 11.8383 68.7613 11.5129C68.3929 11.3276 67.9876 11.2276 67.5753 11.2203C67.163 11.2129 66.7543 11.2984 66.3795 11.4703C64.4845 12.2727 62.7592 13.4278 61.2954 14.8742C60.8912 15.272 60.6 15.7701 60.4518 16.3175C60.0055 17.8563 59.4382 19.3574 58.7553 20.8067C57.5003 23.2864 55.9471 25.6036 54.1303 27.7067C53.6832 28.2478 53.24 28.7921 52.7951 29.335ZM51.0202 70.5536L51.0267 70.4626C50.7612 70.4183 50.4971 70.3569 50.2298 70.3323C48.5793 70.1808 46.9303 69.9975 45.2763 69.9022C43.3445 69.7682 41.4051 69.791 39.477 69.9703C37.2428 70.2039 35.0075 70.4289 32.7704 70.6327C30.3564 70.9028 27.914 70.7579 25.5489 70.2044C21.8059 69.2524 18.04 68.3455 14.5607 66.5829C14.4216 66.5113 14.2786 66.4478 14.1322 66.3928C14.0209 66.3518 13.9012 66.3332 13.655 66.2726C14.4241 66.7841 15.0825 67.203 15.7211 67.6502C18.0793 69.2947 20.5368 70.7919 23.0797 72.1332C25.2011 73.3188 27.5379 74.0687 29.953 74.3392C31.8404 74.5398 33.7471 74.4638 35.6126 74.1134C37.2954 73.7604 38.9483 73.2776 40.5565 72.6694C43.4139 71.5977 46.4098 70.94 49.4533 70.7163C49.9769 70.6813 50.498 70.6088 51.0202 70.5536ZM12.9545 65.3212C12.9337 65.3689 12.9129 65.4165 12.8921 65.4641C13.0116 65.5209 13.1305 65.5791 13.2508 65.6343C14.1032 66.0253 14.9491 66.4314 15.8105 66.8015C16.5626 67.1246 17.3214 67.4387 18.0964 67.7C19.2248 68.0806 20.3737 68.4001 21.508 68.7637C24.0549 69.6534 26.7117 70.1903 29.4043 70.3594C31.3396 70.3998 33.2754 70.2996 35.1963 70.0596C36.7308 69.8957 38.2628 69.6945 39.8013 69.5842C41.9265 69.4182 44.0614 69.4152 46.1871 69.5752C47.5282 69.6846 48.8657 69.8384 50.2037 69.9828C50.7188 70.0384 51.2307 70.1234 51.7442 70.1949C51.7153 70.138 51.6753 70.0875 51.6265 70.0465C51.5776 70.0054 51.521 69.9747 51.46 69.956C49.2031 69.1257 46.9113 68.4058 44.5906 67.7763C41.9678 67.0512 39.2458 66.7507 36.528 66.8861C32.6223 67.0918 28.7172 67.3087 24.8114 67.513C23.2082 67.5637 21.6042 67.4346 20.0297 67.128C18.0109 66.7594 16.0195 66.254 14.0692 65.6154C13.7032 65.4996 13.3264 65.4184 12.9545 65.3212ZM48.4068 35.2038C47.8156 34.4734 47.2797 33.8054 46.735 33.1448C46.6427 33.0432 46.5354 32.9565 46.4167 32.8876C44.1615 31.4163 41.5363 30.6126 38.8439 30.5692C37.084 30.594 35.337 30.8745 33.6577 31.402C32.062 31.8496 30.4693 32.3081 28.874 32.757C28.6017 32.8336 28.3227 32.8864 28.0469 32.9502L28.0614 33.0929C28.3448 33.0824 28.6285 33.0764 28.9116 33.0609C31.0008 32.9467 33.089 32.8093 35.1792 32.7205C37.9169 32.5929 40.6571 32.912 43.2922 33.6653C44.9575 34.1454 46.6121 34.6625 48.4068 35.2038ZM61.0587 8.13409C61.1839 9.63012 60.513 10.8715 59.859 12.1213C59.6934 12.4534 59.5459 12.7944 59.4174 13.1426C58.839 14.7403 58.429 16.3941 58.194 18.0769C57.9676 19.8803 57.4702 21.6392 56.7187 23.2941C56.6921 23.3588 56.6707 23.4255 56.6546 23.4936C56.7692 23.4555 56.8663 23.3775 56.9281 23.2738C57.8896 21.7759 58.6861 20.1783 59.3037 18.5089C59.8443 16.9203 60.3183 15.3085 60.8836 13.729C61.3237 12.5356 61.5336 11.2696 61.5021 9.99804C61.5555 9.34544 61.4002 8.69274 61.0587 8.13409ZM74.5893 39.353L74.5689 39.4438C74.9186 40.1797 75.2924 40.9051 75.6126 41.6535C76.0649 42.8542 76.9324 43.8532 78.0578 44.4695C79.1967 44.9556 80.4027 45.2662 81.6347 45.3908C81.5795 45.3072 81.566 45.2644 81.5371 45.2467C81.4054 45.1626 81.2696 45.0852 81.1302 45.0148C79.8611 44.3959 78.7546 43.4881 77.8995 42.3644C77.3725 41.7106 76.7927 41.101 76.1661 40.5418C75.6613 40.1187 75.1349 39.7219 74.5893 39.353Z" fill="white" fill-opacity="0.63"/>
<path d="M77.8757 29.9422C77.5388 30.3108 77.2248 30.7037 76.8615 31.0441C74.0538 33.612 70.7203 35.5374 67.0929 36.6862C64.6011 37.5096 61.9816 37.8786 59.3592 37.7756C56.8374 37.673 54.353 37.1295 52.0186 36.1696C51.9834 36.155 51.9521 36.1323 51.9271 36.1034C51.9022 36.0746 51.8843 36.0403 51.875 36.0033C52.4477 36.1786 53.0204 36.3538 53.5931 36.529C55.198 37.0234 56.8522 37.3408 58.5261 37.4756C59.8707 37.5864 61.2231 37.5592 62.5622 37.3944C67.4715 36.7498 72.1034 34.748 75.937 31.6144C76.2736 31.3472 76.5951 31.0595 76.9084 30.7652C77.215 30.4773 77.5022 30.1686 77.7979 29.8691L77.8757 29.9422Z" fill="white" fill-opacity="0.63"/>
<path d="M51.0267 8.03171C50.0689 9.41116 49.085 10.7734 48.1589 12.1739C46.6121 14.4884 45.5848 17.1104 45.1479 19.8597C44.8803 21.4188 44.7703 23.0009 44.8193 24.582C44.8724 25.8033 45.1429 27.0151 45.3191 28.2308C45.3632 28.402 45.3615 28.5819 45.3142 28.7522C45.1376 27.9556 44.9079 27.1665 44.7935 26.361C44.2918 22.8266 44.6862 19.2229 45.9403 15.8807C46.8812 13.535 48.1896 11.354 49.8163 9.41965C50.2 8.93313 50.5998 8.45926 50.9922 7.97949L51.0267 8.03171Z" fill="white" fill-opacity="0.63"/>
<path d="M79.5324 25.4375C78.8391 25.5302 78.1457 25.623 77.4523 25.7158C76.1573 25.8912 74.8572 26.0364 73.5685 26.2505C71.1639 26.6524 68.8012 27.2741 66.5102 28.1077C64.1169 28.91 61.7835 29.8807 59.5273 31.0126C59.636 30.9311 59.7392 30.8409 59.854 30.7694C61.547 29.7956 63.3269 28.9814 65.1707 28.3373C67.2345 27.5088 69.3643 26.8555 71.5376 26.3844C72.5869 26.1685 73.6515 26.0255 74.7118 25.8662C75.5797 25.7358 76.4498 25.6193 77.3219 25.5167C78.0561 25.4297 78.7936 25.3698 79.5297 25.2979L79.5324 25.4375Z" fill="white" fill-opacity="0.63"/>
<path d="M44.7342 30.4597L45.7812 31.373L45.7287 31.4664C45.4663 31.3039 45.2012 31.1454 44.9418 30.9781C43.7832 30.2123 42.5586 29.5513 41.2827 29.0027C39.3808 28.2344 37.3831 27.729 35.3446 27.5005C33.7694 27.329 32.1808 27.3206 30.6039 27.4756C29.5771 27.5592 28.5626 27.7956 27.5427 27.9641C27.3314 28.0152 27.1116 28.0196 26.8984 27.9769C27.7704 27.7907 28.6347 27.5416 29.5163 27.4336C30.7178 27.2759 31.9275 27.189 33.1393 27.1734C36.8107 27.1292 40.4287 28.0553 43.6275 29.8579C43.8003 29.9419 43.9782 30.0147 44.1604 30.0759L44.7342 30.4597Z" fill="white" fill-opacity="0.63"/>
<path d="M50.3828 40.8594C51.0435 41.4979 51.6437 42.1371 52.3062 42.7032C53.1635 43.3866 54.1144 43.9435 55.1298 44.3569C57.5349 45.3885 60.0852 46.0413 62.6901 46.2921C65.6792 46.6392 68.6918 46.7394 71.6973 46.5914C71.4158 46.6258 71.1348 46.6637 70.853 46.6936C70.5631 46.737 70.2708 46.7624 69.9778 46.7695C68.2608 46.7362 66.5433 46.7076 64.8274 46.6415C62.6641 46.5597 60.5159 46.2449 58.4201 45.7026C56.1692 45.1789 54.0453 44.2116 52.1727 42.8572C51.4269 42.3417 50.8135 41.6571 50.3828 40.8594Z" fill="white" fill-opacity="0.63"/>
<path d="M48.2047 34.7708C48.0925 34.4454 47.959 34.1256 47.8718 33.7937C47.5557 32.4394 47.5206 31.0346 47.7686 29.6662C48.2765 26.2525 49.645 23.1561 51.3232 20.1782C51.4557 19.9132 51.6318 19.6723 51.8443 19.4658C51.7594 19.6276 51.6751 19.7899 51.5894 19.9514C50.2099 22.4278 49.1317 25.0603 48.3776 27.7928C47.9163 29.4516 47.7634 31.1809 47.9265 32.8949C47.9965 33.5094 48.1699 34.1121 48.2961 34.7203L48.2047 34.7708Z" fill="white" fill-opacity="0.63"/>
<path d="M65.3096 17.9492C63.6014 19.4638 61.8772 20.9608 60.1893 22.4978C58.5271 24.054 56.9977 25.7463 55.6172 27.5572C58.1285 23.6209 61.6346 20.6881 65.3096 17.9492Z" fill="white" fill-opacity="0.63"/>
<path d="M48.7496 12.4805C46.568 16.0112 45.2758 19.7123 45.2532 25.2314C44.5288 20.4574 46.9369 14.4614 48.7496 12.4805Z" fill="white" fill-opacity="0.63"/>
<path d="M59.668 41.6179C64.7856 42.0393 69.9372 41.7233 74.965 40.6797C72.5136 41.7568 62.6996 42.449 59.668 41.6179Z" fill="white" fill-opacity="0.63"/>
<path d="M59.6523 21.8794C61.8622 18.728 64.5993 15.9815 67.7432 13.7607C64.7916 16.2006 62.0821 18.9194 59.6523 21.8794Z" fill="white" fill-opacity="0.63"/>
<path d="M33.6289 19.7441C37.3986 21.3925 40.645 24.0416 43.0159 27.4042C42.7063 27.0747 42.3822 26.7575 42.0893 26.4137C39.9268 23.8506 37.3015 21.717 34.3504 20.1242C34.111 19.9955 33.8694 19.8707 33.6289 19.7441Z" fill="white" fill-opacity="0.63"/>
<path d="M38.8087 19.8608C36.1128 17.4263 33.1072 15.5976 29.4297 14.8885C29.4866 14.8083 29.5701 14.751 29.6654 14.7267C29.7606 14.7024 29.8614 14.7128 29.9497 14.7559C30.9272 15.016 31.8909 15.3257 32.837 15.6837C34.9318 16.5616 36.8357 17.839 38.4422 19.4446C38.5724 19.5754 38.6869 19.7217 38.8087 19.8608Z" fill="white" fill-opacity="0.63"/>
<path d="M84.9163 49.5029C82.8002 50.6019 75.656 50.5212 72.9922 49.8071C74.9832 50.0626 76.9894 50.1807 78.9966 50.1606C80.9886 50.1696 82.9749 49.9489 84.9163 49.5029Z" fill="white" fill-opacity="0.63"/>
<path d="M55.1445 36.0386C59.0093 37.065 63.0879 36.9563 66.8925 35.7256C63.1197 37.1308 58.9867 37.2409 55.1445 36.0386Z" fill="white" fill-opacity="0.63"/>
<path d="M61.2422 33.35C65.1777 32.5749 69.0831 31.712 72.596 29.6377C69.144 31.8944 65.2426 32.7763 61.2422 33.35Z" fill="white" fill-opacity="0.63"/>
<path d="M44.7349 30.4594L44.161 30.0756C44.006 29.9296 43.8431 29.7921 43.6732 29.6638C41.4308 28.1489 38.8581 27.1933 36.1706 26.8771C35.7414 26.8307 35.3187 26.7369 34.9102 26.5977C35.6995 26.6981 36.4944 26.7671 37.2772 26.905C39.8127 27.3214 42.217 28.3207 44.3007 29.8241C44.4737 29.9511 44.6362 30.092 44.7864 30.2454C44.8136 30.2731 44.7542 30.3859 44.7349 30.4594Z" fill="white" fill-opacity="0.63"/>
<path d="M64.2773 45.7885C60.3036 45.6141 56.4791 44.8966 53.0469 42.7395C56.5249 44.5582 60.357 45.5986 64.2773 45.7885Z" fill="white" fill-opacity="0.63"/>
<path d="M59.0305 4.25366C58.6458 4.64825 58.2506 5.03322 57.8793 5.44001C57.4846 5.87241 57.0929 6.31038 56.7362 6.77383C56.3914 7.2217 56.0786 7.6963 55.7778 8.17551C55.4667 8.67126 55.1804 9.18305 54.8952 9.69444C54.6215 10.1855 54.363 10.6851 54.0391 11.2907C54.6729 9.05477 57.3633 5.21445 59.0305 4.25366Z" fill="white" fill-opacity="0.63"/>
<path d="M67.7617 20.8891C69.6932 19.4118 71.5196 17.8019 73.2277 16.071L73.3234 16.1333C73.2544 16.2681 73.1711 16.395 73.0748 16.5119C72.4209 17.1567 71.795 17.8377 71.0875 18.4187C70.1062 19.2243 69.0617 19.9529 68.0428 20.7126C67.9544 20.7785 67.8557 20.8306 67.7617 20.8891Z" fill="white" fill-opacity="0.63"/>
<path d="M57.4727 26.1394C59.0615 24.3311 60.9165 22.7753 62.9738 21.5254C61.0502 22.953 59.2133 24.4937 57.4727 26.1394Z" fill="white" fill-opacity="0.63"/>
<path d="M82.0788 49.2878C80.171 49.6578 78.2199 49.7528 76.2852 49.5698C76.9228 49.5463 77.5603 49.5148 78.1981 49.5017C78.8424 49.4885 79.4884 49.5189 80.1311 49.4838C80.782 49.4481 81.4297 49.3555 82.0788 49.2878Z" fill="white" fill-opacity="0.63"/>
<path d="M56.918 7.39506C57.5103 6.43438 58.2586 5.57907 59.132 4.86426C58.9763 5.19729 58.7523 5.49383 58.4745 5.73462C58.2215 6.03137 57.9571 6.31854 57.7047 6.61585C57.4658 6.89729 57.2358 7.18632 57.0019 7.47209L56.918 7.39506Z" fill="white" fill-opacity="0.63"/>
<path d="M34.0481 15.4276C32.7271 14.9538 31.3473 14.4588 29.875 13.9307C31.3437 14.1785 32.7567 14.6854 34.0481 15.4276Z" fill="white" fill-opacity="0.63"/>
<path d="M73.4278 16.739C72.8771 17.5762 72.1515 18.2839 71.3008 18.8135C72.0098 18.122 72.7188 17.4305 73.4278 16.739Z" fill="white" fill-opacity="0.63"/>
<path d="M62.1875 33.5435C63.2135 33.3604 64.2395 33.1772 65.2654 32.9941C64.2776 33.349 63.2371 33.5347 62.1875 33.5435Z" fill="white" fill-opacity="0.63"/>
<path d="M-28 80.1589C-26.8634 80.5155 -25.7327 80.8918 -24.5895 81.2253C-20.5038 82.3746 -16.336 83.2094 -12.1229 83.7224C-8.92218 84.1441 -5.70725 84.3931 -2.48388 84.5466C-0.374272 84.647 1.7341 84.7973 3.84483 84.8442C7.19187 84.9187 10.536 84.7784 13.8777 84.5748C15.5769 84.4713 17.2807 84.4379 18.9787 84.3196C21.4179 84.1495 23.8532 83.923 26.2912 83.7352C28.81 83.5411 31.2987 83.1348 33.7854 82.71C40.1255 81.6831 46.2802 79.7292 52.0516 76.9109C55.3165 75.2602 58.7145 73.887 62.2095 72.8058C64.7373 72.0489 67.3114 71.4564 69.9157 71.0318C72.7868 70.556 75.6677 70.1387 78.4888 69.3865C81.7116 68.4903 84.834 67.2664 87.8074 65.7338C90.1148 64.5775 92.4105 63.3974 94.7105 62.226C94.8652 62.1472 95.0118 62.0525 95.1549 61.9694C95.1435 61.9055 95.15 61.8565 95.1285 61.8337C94.0146 60.6444 94.0661 59.2172 94.4268 57.8038C94.728 56.712 95.1146 55.6455 95.583 54.6143C97.2479 50.8601 98.5177 46.9428 99.372 42.9257C99.7334 41.2435 99.9293 39.5299 99.9567 37.8096C99.9646 36.2458 99.9782 34.6775 99.8727 33.1191C99.7858 31.8361 99.5472 30.5615 99.3403 29.2891C99.1302 28.1741 99.0294 27.0412 99.0393 25.9067C99.0265 25.7419 99.0486 25.5763 99.1041 25.4207C99.1597 25.265 99.2475 25.1229 99.3617 25.0035C99.9769 24.877 100.27 24.9538 100.513 25.5124C100.798 26.1743 101.02 26.8614 101.177 27.5647C101.484 28.936 101.706 30.3266 102.008 31.6992C102.146 32.2485 102.331 32.7849 102.561 33.3023C103.246 34.8586 103.825 36.4599 104.293 38.0949C104.615 39.3083 104.665 40.5777 104.441 41.8129C104.431 41.8706 104.429 41.9294 104.435 41.9876C104.454 42.0426 104.479 42.0951 104.511 42.1438C104.744 41.9175 104.973 41.7126 105.183 41.4892C107.381 39.1768 109.451 36.7454 111.382 34.2058C113.364 31.6526 115.601 29.3085 118.058 27.2099C119.108 26.2907 120.331 25.5912 121.655 25.1531C123.139 24.6521 124.596 24.6574 125.869 25.7193C126.185 26.0056 126.443 26.3503 126.629 26.7347C126.753 26.9925 126.818 27.2752 126.816 27.5614C126.815 27.8476 126.749 28.1298 126.623 28.3867C126.352 29.0122 126.021 29.6123 125.71 30.2198C125.625 30.3848 125.514 30.5367 125.416 30.6946L125.503 30.7822C125.66 30.6558 125.819 30.5319 125.974 30.4026C126.499 29.9632 126.997 29.4854 127.555 29.0927C128.015 28.7642 128.516 28.4956 129.044 28.2934C130.047 27.92 130.688 28.2634 130.959 29.2913C131.276 30.6099 131.27 31.9854 130.943 33.3014C130.822 33.8542 130.64 34.3931 130.494 34.9407C130.116 36.3558 129.703 37.7629 129.38 39.1904C129.011 40.8308 128.53 42.4442 127.941 44.0192C126.912 46.5243 125.404 48.805 123.503 50.7337C123.349 50.9013 123.199 51.0726 122.985 51.3118C123.67 51.3624 124.249 51.3965 124.826 51.4491C127.238 51.7165 129.605 52.2984 131.867 53.1801C132.216 53.3078 132.568 53.4269 132.911 53.5684C134.176 54.0939 135.506 54.4478 136.864 54.6205C137.464 54.7026 138.049 54.8713 138.601 55.1212C139.169 55.3727 139.635 55.8106 139.921 56.3625C140.207 56.9144 140.297 57.5474 140.175 58.157C140.062 58.8538 139.793 59.5159 139.387 60.0933C137.974 62.1554 135.927 63.1962 133.566 63.7361C133.224 63.8142 132.877 63.8644 132.485 63.936C132.54 64.0158 132.565 64.0891 132.616 64.1231C133.802 64.9904 134.883 65.9927 135.837 67.1098C136.25 67.5502 136.713 67.9454 137.164 68.3485C137.925 68.9795 138.888 69.315 139.876 69.2934C140.227 69.28 140.579 69.3106 140.923 69.3844C141.334 69.4949 141.722 69.6802 142.065 69.9311C142.332 70.1227 142.517 70.4072 142.585 70.7286C142.652 71.0501 142.597 71.385 142.429 71.6676C142.059 72.4311 141.454 73.0568 140.704 73.454C139.802 73.9684 138.817 74.3232 137.794 74.503C134.97 74.9858 132.078 74.8735 129.3 74.1734C126.01 73.3711 122.836 72.1486 119.857 70.5362C117.481 69.2978 115.12 68.031 112.727 66.8266C110.886 65.911 108.923 65.2664 106.898 64.9128C105.428 64.6949 103.937 64.6458 102.456 64.7666C101.344 64.8567 100.225 64.7842 99.1341 64.5516C97.7559 64.2133 96.4944 63.6791 95.6637 62.438C95.6336 62.3931 95.5741 62.3681 95.4874 62.3031C95.2769 62.4043 95.0504 62.5095 94.8271 62.6211C91.767 64.1515 88.725 65.7196 85.6429 67.2044C82.0417 68.8832 78.2289 70.0643 74.3093 70.7152C72.002 71.1308 69.6808 71.4722 67.3786 71.9135C63.8229 72.5916 60.3539 73.6643 57.0361 75.1117C54.4383 76.2463 51.8721 77.4528 49.2816 78.6044C45.7794 80.1668 42.1227 81.3567 38.3718 82.1545C35.8491 82.6887 33.3139 83.1624 30.7662 83.5758C29.1087 83.8468 27.4296 84.0008 25.755 84.1495C23.2997 84.3677 20.8425 84.5888 18.3813 84.7108C14.1009 84.9229 9.81804 85.1224 5.53385 85.2042C3.17201 85.2492 0.804708 85.0574 -1.55888 84.9466C-3.3166 84.8642 -5.07393 84.7622 -6.82856 84.6302C-9.87098 84.4014 -12.8952 84.0162 -15.9067 83.5241C-19.7857 82.8836 -23.6136 81.9647 -27.3606 80.7745C-27.5632 80.7106 -27.7751 80.6763 -27.9827 80.6283C-27.9885 80.4718 -27.9942 80.3153 -28 80.1589ZM123.335 33.0226L123.186 32.8583C123.293 32.711 123.394 32.5594 123.507 32.4171C124.115 31.6511 124.773 30.9198 125.319 30.1125C125.729 29.4947 126.064 28.8299 126.316 28.1324C126.462 27.7528 126.476 27.335 126.356 26.9464C126.236 26.5577 125.989 26.2208 125.654 25.9898C125.196 25.6166 124.654 25.3606 124.075 25.2441C123.496 25.1276 122.897 25.1541 122.331 25.3213C120.899 25.6774 119.573 26.3704 118.462 27.3426C116.13 29.3154 113.99 31.5043 112.07 33.8802C110.91 35.3325 109.762 36.7945 108.58 38.2279C107.078 40.0327 105.485 41.7607 103.809 43.4054C102.711 44.4653 101.683 45.5953 100.732 46.7882C98.3914 49.808 96.5033 53.1527 95.1271 56.7169C94.7227 57.6973 94.5496 58.7577 94.6211 59.8158C94.6417 60.3994 94.8679 60.957 95.2597 61.39C95.6516 61.823 96.1839 62.1035 96.7626 62.1821C97.4358 62.2938 98.1238 62.2797 98.7919 62.1403C100.041 61.8251 101.271 61.438 102.476 60.9809C104.316 60.268 106.206 59.6909 108.13 59.2542C109.398 59.0222 110.644 58.6808 111.853 58.2338C116.868 56.2564 121.28 53.0074 124.658 48.8067C125.904 47.3192 126.9 45.6383 127.606 43.8303C128.196 42.2353 128.678 40.6025 129.049 38.9429C129.357 37.5723 129.74 36.2172 130.134 34.8683C130.491 33.7711 130.721 32.6367 130.82 31.4872C130.883 30.7047 130.784 29.9176 130.53 29.1748C130.506 29.0473 130.452 28.9272 130.374 28.8237C130.295 28.7203 130.194 28.6363 130.078 28.5782C129.962 28.5202 129.834 28.4897 129.704 28.4891C129.574 28.4885 129.446 28.5179 129.33 28.5748C128.852 28.7454 128.395 28.968 127.967 29.2386C127.578 29.5019 127.209 29.7936 126.864 30.1113C125.851 30.9748 124.849 31.8495 123.835 32.7117C123.677 32.828 123.51 32.932 123.335 33.0226ZM96.3539 62.5714C96.6274 63.008 97.0274 63.351 97.5008 63.5545C98.9228 64.2806 100.529 64.566 102.114 64.3742C103.782 64.1932 105.435 63.8755 107.094 63.6171C108.542 63.3917 109.986 63.1388 111.438 62.9479C112.775 62.7722 114.122 62.6721 115.463 62.5224C119.925 62.0499 124.435 62.3163 128.811 63.311C130.783 63.779 132.848 63.6757 134.763 63.0132C136.575 62.4505 138.138 61.2814 139.189 59.7023C139.675 59.0052 139.897 58.1583 139.817 57.3124C139.798 56.8766 139.63 56.4605 139.342 56.1329C139.054 55.8053 138.663 55.5859 138.233 55.5111C137.616 55.4216 136.991 55.4022 136.369 55.4534C135.337 55.5201 134.312 55.6877 133.28 55.7504C132.2 55.8262 131.12 55.5979 130.162 55.0914C129.145 54.5495 128.131 53.9959 127.143 53.4029C126.163 52.7917 125.117 52.2955 124.024 51.924C123.745 51.836 123.459 51.7723 123.169 51.7335C122.985 51.7035 122.797 51.7196 122.621 51.7805C122.445 51.8414 122.286 51.9451 122.16 52.0823C119.953 54.1976 117.447 55.9782 114.723 57.3674C113.202 58.2164 111.569 58.8481 109.872 59.244C108.311 59.596 106.747 59.956 105.216 60.418C103.759 60.8576 102.345 61.4411 100.908 61.9476C99.4441 62.4634 97.9645 62.8916 96.3539 62.5714ZM105.419 64.4044C105.564 64.415 105.672 64.4243 105.78 64.4304C105.897 64.437 106.016 64.4317 106.132 64.4468C108.038 64.661 109.9 65.1647 111.655 65.9407C113.676 66.876 115.671 67.8669 117.641 68.9136C120.232 70.3719 122.925 71.6403 125.7 72.7086C129.01 73.9943 132.556 74.5588 136.101 74.3642C137.57 74.278 139.005 73.8892 140.316 73.2222C141.011 72.8923 141.591 72.3607 141.979 71.6968C142.084 71.5586 142.156 71.3979 142.188 71.2274C142.22 71.0569 142.212 70.8812 142.165 70.7142C142.118 70.5472 142.033 70.3935 141.916 70.2652C141.799 70.1368 141.654 70.0374 141.492 69.9746C141.232 69.8431 140.952 69.7534 140.664 69.7088C139.692 69.5996 138.708 69.6592 137.755 69.8849C136.659 70.0716 135.563 70.2604 134.462 70.4142C132.516 70.6788 130.536 70.497 128.67 69.8827C126.717 69.2563 124.792 68.5435 122.865 67.8393C120.791 67.0814 118.757 66.1829 116.583 65.759C113.693 65.1957 110.788 64.7079 107.88 64.2457C107.063 64.0359 106.202 64.0915 105.419 64.4044ZM107.809 63.852L107.835 63.9174C109.319 64.1292 110.803 64.3411 112.287 64.5532C115.481 64.9861 118.614 65.7897 121.622 66.9477C123.711 67.7707 125.834 68.509 127.944 69.276C131.304 70.497 134.686 70.3396 138.1 69.4194C138.059 69.3752 138.013 69.3358 137.962 69.3018C137.095 68.8469 136.316 68.2386 135.665 67.5064C135.227 67.0322 134.813 66.5321 134.336 66.0998C133.658 65.4841 132.942 64.908 132.223 64.3392C131.89 64.0947 131.49 63.9594 131.077 63.9517C130.337 63.9213 129.6 63.8368 128.872 63.6988C124.823 62.7944 120.661 62.5021 116.525 62.8318C114.794 62.9782 113.065 63.1689 111.339 63.3678C110.159 63.5038 108.985 63.6889 107.809 63.852ZM97.6439 50.4663L97.7388 50.4885C97.7949 50.4104 97.8558 50.3353 97.9062 50.2537C99.4541 47.6876 101.316 45.3245 103.449 43.2193C103.701 42.9491 103.88 42.6189 103.968 42.2602C104.286 41.0645 104.306 39.8089 104.025 38.6039C103.63 37.0304 103.104 35.4929 102.451 34.0079C102.144 33.3327 101.889 32.6346 101.69 31.9201C101.368 30.5331 101.161 29.1196 100.863 27.7265C100.711 27.0621 100.514 26.409 100.271 25.7721C100.17 25.4945 99.9856 25.1928 99.52 25.3275C99.4499 25.5193 99.4041 25.719 99.3836 25.922C99.3786 26.5477 99.4103 27.1732 99.4787 27.7952C99.7134 29.5564 100.012 31.3093 100.238 33.0716C100.522 35.699 100.469 38.3519 100.081 40.966C99.6488 44.0043 98.8957 46.9882 97.8346 49.8679C97.7652 50.0653 97.7072 50.2668 97.6439 50.4663ZM125.061 51.9188C125.156 51.9705 125.251 52.0228 125.347 52.0738C126.155 52.506 126.965 52.9355 127.772 53.3708C128.631 53.8344 129.469 54.3435 130.352 54.7556C130.933 55.0303 131.549 55.2247 132.182 55.3335C133.582 55.4943 134.998 55.4253 136.375 55.129C136.487 55.1024 136.597 55.0673 136.704 55.024C135.517 54.8402 134.355 54.5289 133.235 54.0957C132.009 53.6393 130.775 53.2055 129.533 52.7944C128.086 52.311 126.583 52.0166 125.061 51.9188Z" fill="white" fill-opacity="0.63"/>
<path d="M100.828 63.8335C103.356 63.5857 105.862 63.1483 108.324 62.5249C110.827 61.9264 113.328 61.3131 115.853 60.8205C117.597 60.4913 119.358 60.2588 121.128 60.1242C122.897 59.9791 124.679 59.9334 126.455 59.9435C128.621 59.9288 130.786 60.0421 132.939 60.2827C133.081 60.2984 133.214 60.357 133.322 60.4508C132.735 60.4227 132.148 60.3945 131.561 60.3664C130.782 60.3293 130.003 60.2757 129.224 60.2594C127.798 60.2296 126.371 60.1907 124.946 60.2144C123.638 60.2363 122.329 60.3073 121.025 60.4099C119.976 60.4923 118.925 60.6126 117.888 60.7904C116.256 61.0704 114.63 61.3852 113.01 61.7351C110.457 62.2881 107.922 62.9208 105.364 63.4467C103.874 63.7618 102.35 63.8918 100.828 63.8335Z" fill="white" fill-opacity="0.63"/>
<path d="M117.604 31.7773C116.501 33.0202 115.439 34.3016 114.288 35.4982C111.292 38.6137 108.237 41.6726 105.247 44.7941C103.977 46.1202 102.789 47.5273 101.603 48.9312C99.7493 51.1863 98.2619 53.7188 97.195 56.436C97.1011 56.6649 96.9983 56.8902 96.8997 57.1172L96.7852 57.0775C96.8468 56.883 96.9038 56.687 96.9708 56.4944C98.1974 53.0771 100.111 49.9474 102.594 47.2981C104.873 44.8001 107.243 42.383 109.606 39.9624C112.269 37.2348 114.969 34.5432 117.652 31.836L117.604 31.7773Z" fill="white" fill-opacity="0.63"/>
<path d="M107.496 54.2022C108.174 53.6464 108.847 53.0828 109.532 52.5361C114.41 48.733 118.841 44.3883 122.738 39.5854C124.27 37.6581 125.707 35.6554 127.186 33.6868C127.243 33.6112 127.297 33.533 127.413 33.3701C126.803 34.9178 121.509 41.7042 118.507 44.82C115.169 48.3121 111.513 51.4854 107.586 54.2984L107.496 54.2022Z" fill="white" fill-opacity="0.63"/>
<path d="M108.154 50.5205C105.642 53.6881 97.6575 60.5989 95.6953 61.223C96.7831 60.4134 97.8892 59.627 98.9536 58.7877C100.044 57.9281 101.109 57.0349 102.155 56.1228C103.187 55.2233 104.191 54.2912 105.191 53.3558C106.189 52.422 107.167 51.4664 108.154 50.5205Z" fill="white" fill-opacity="0.63"/>
<path d="M118.172 69.1318C123.149 70.8731 128.125 72.439 133.307 72.5475C132.05 72.6621 130.784 72.6223 129.536 72.4289C125.841 71.9063 122.232 70.8969 118.802 69.4272C118.588 69.3377 118.382 69.2307 118.172 69.1318Z" fill="white" fill-opacity="0.63"/>
<path d="M101.462 36.2627C101.569 37.8789 101.404 39.5017 100.972 41.0628C100.263 44.1901 99.1294 47.2056 97.6028 50.0254C97.5798 50.0757 97.5448 50.1197 97.5011 50.1537C97.4573 50.1876 97.406 50.2105 97.3516 50.2203C97.4887 49.9148 97.6178 49.6053 97.7642 49.3043C98.9709 46.8279 99.9283 44.2377 100.622 41.5719C101.107 39.8407 101.388 38.059 101.462 36.2627Z" fill="white" fill-opacity="0.63"/>
<path d="M127.697 70.9898C123.095 70.5854 118.863 68.9242 114.723 66.959C114.885 67.0141 115.048 67.0671 115.209 67.1249C115.374 67.184 115.54 67.2442 115.702 67.3103C118.256 68.3858 120.875 69.2997 123.543 70.0465C124.915 70.4118 126.312 70.6786 127.697 70.9898Z" fill="white" fill-opacity="0.63"/>
<path d="M125.62 55.4678C123.72 55.8876 121.807 56.2535 119.926 56.7425C118.044 57.2315 116.194 57.8437 114.32 58.3646C117.93 56.8673 121.735 55.8919 125.62 55.4678Z" fill="white" fill-opacity="0.63"/>
<path d="M119.845 44.7314C117.682 47.1976 115.247 49.4117 112.587 51.3317L112.508 51.2415C113.336 50.5582 114.176 49.8881 114.99 49.188C115.835 48.4614 116.663 47.7146 117.484 46.9605C118.28 46.2281 119.059 45.4753 119.845 44.7314Z" fill="white" fill-opacity="0.63"/>
<path d="M97.8984 56.4148C98.911 53.572 101.297 49.7442 103.048 48.1055C100.993 50.6506 99.2634 53.4419 97.8984 56.4148Z" fill="white" fill-opacity="0.63"/>
<path d="M109.191 61.7568C107.861 62.4837 103.043 63.2218 101 63.1283C103.757 62.8505 106.493 62.3924 109.191 61.7568Z" fill="white" fill-opacity="0.63"/>
<path d="M102.038 40.3652C101.499 42.6203 100.666 44.7951 99.5625 46.8344C100.38 44.6985 101.197 42.5627 102.038 40.3652Z" fill="white" fill-opacity="0.63"/>
</g>
<defs>
<clipPath id="clip0_135_156370">
<rect width="170.604" height="90.4987" fill="white" transform="translate(-28)"/>
</clipPath>
</defs>
</svg>
