<svg width="70" height="70" viewBox="0 0 70 70" fill="none" xmlns="http://www.w3.org/2000/svg">
<g clip-path="url(#clip0_135_156313)">
<path d="M61.423 16.6017C59.2839 13.7911 56.262 11.7811 52.843 10.8947C49.424 10.0083 45.8062 10.2968 42.5709 11.714C39.6752 12.9636 37.0926 15.0704 34.998 17.8663C32.9035 15.0636 30.3209 12.9568 27.4252 11.714C24.1899 10.2968 20.5721 10.0083 17.1531 10.8947C13.7341 11.7811 10.7122 13.7911 8.57305 16.6017C6.31719 19.5575 5.125 23.2517 5.125 27.2835C5.125 33.0859 8.58535 39.4515 15.409 46.2109C20.9693 51.7165 27.54 56.2255 30.9607 58.4226C32.166 59.194 33.5671 59.6039 34.998 59.6039C36.429 59.6039 37.8301 59.194 39.0354 58.4226C42.4533 56.2255 49.0268 51.7165 54.5871 46.2109C61.4107 39.4542 64.8711 33.0859 64.8711 27.2835C64.8711 23.2517 63.6789 19.5575 61.423 16.6017Z" fill="white"/>
<path d="M62.6286 15.7897L62.629 15.7902C64.9493 18.8306 66.1835 22.6397 66.1835 26.8161C66.1835 32.7718 62.6258 39.4046 55.4244 46.5353C49.5637 52.3384 42.6257 57.0986 39.0116 59.4218C37.8139 60.1881 36.4218 60.5953 34.9999 60.5953C33.578 60.5953 32.1859 60.1881 30.9882 59.4217C27.3713 57.0986 20.4362 52.3384 14.5755 46.5353C7.37403 39.4016 3.81641 32.7717 3.81641 26.8161C3.81641 22.6397 5.05056 18.8306 7.3709 15.7902L7.37129 15.7897C9.57222 12.898 12.6813 10.8301 16.199 9.91804C19.7167 9.00602 23.4388 9.3029 26.7675 10.761L26.7709 10.7624C29.7519 12.0418 32.4239 14.2164 34.5994 17.1275L34.9995 17.6628L35.4001 17.128C37.5757 14.2238 40.2481 12.0488 43.2299 10.7621L43.2324 10.761C46.561 9.3029 50.2832 9.00602 53.8009 9.91804C57.3186 10.8301 60.4277 12.898 62.6286 15.7897Z" stroke="white"/>
</g>
<defs>
<clipPath id="clip0_135_156313">
<rect width="70" height="70" fill="white"/>
</clipPath>
</defs>
</svg>
