<svg width="52" height="51" viewBox="0 0 52 51" fill="none" xmlns="http://www.w3.org/2000/svg">
<ellipse cx="26.0094" cy="25.5" rx="25.5797" ry="25.5" fill="#604384"/>
<path fill-rule="evenodd" clip-rule="evenodd" d="M34.2731 35.7208C32.6993 36.7037 30.4198 36.6723 27.936 35.779C25.5337 34.915 22.925 33.2435 20.5833 30.909C18.2415 28.5746 16.5648 25.974 15.6981 23.5793C14.802 21.1032 14.7705 18.8307 15.7565 17.2619L15.8063 17.1966L17.264 15.7434C17.5639 15.4445 17.9589 15.2949 18.3534 15.2949C18.7481 15.2949 19.143 15.4444 19.4429 15.7434L23.0125 19.3019C23.3124 19.6009 23.4624 19.9946 23.4624 20.3879C23.4624 20.7813 23.3124 21.175 23.0125 21.474L21.5918 22.8904C21.3462 23.3921 21.4165 24.1411 21.7513 24.9841C22.1129 25.8949 22.7802 26.8928 23.6961 27.8059C24.6121 28.7189 25.6131 29.3841 26.5267 29.7447C27.3723 30.0784 28.1237 30.1485 28.627 29.9037L30.0478 28.4874C30.3477 28.1884 30.7426 28.0389 31.1372 28.0389C31.5318 28.0389 31.9267 28.1884 32.2266 28.4874L35.7963 32.0459C36.0962 32.3449 36.2461 32.7385 36.2461 33.132C36.2461 33.5254 36.0962 33.919 35.7963 34.218L34.3386 35.6712L34.2731 35.7208Z" fill="white"/>
<path fill-rule="evenodd" clip-rule="evenodd" d="M16.5527 16.4516L17.2631 15.7434C17.563 15.4445 17.958 15.2949 18.3525 15.2949C18.7472 15.2949 19.142 15.4444 19.442 15.7434L23.0116 19.3019C23.3115 19.6009 23.4615 19.9946 23.4615 20.3879C23.4615 20.7813 23.3115 21.175 23.0116 21.474L21.5909 22.8904C21.3453 23.3921 21.4156 24.1411 21.7504 24.9841C22.112 25.8949 22.7793 26.8928 23.6952 27.8059C24.6112 28.7189 25.6122 29.3841 26.5258 29.7447C27.3714 30.0784 28.1228 30.1485 28.6261 29.9037L27.9157 30.6119C27.4124 30.8567 26.6611 30.7866 25.8153 30.4529C24.9017 30.0923 23.9007 29.4271 22.9848 28.514C22.0689 27.601 21.4016 26.603 21.0399 25.6923C20.7052 24.8493 20.6348 24.1003 20.8805 23.5985L22.3012 22.1821C22.6011 21.8832 22.751 21.4895 22.751 21.0961C22.751 20.7027 22.6011 20.3091 22.3012 20.0101L18.7315 16.4516C18.4316 16.1526 18.0367 16.0031 17.6421 16.0031C17.2476 16.0031 16.8526 16.1526 16.5527 16.4516ZM29.337 29.195L30.0469 28.4873C30.3468 28.1884 30.7417 28.0389 31.1363 28.0389C31.5309 28.0389 31.9258 28.1884 32.2257 28.4873L35.7954 32.0459C36.0953 32.3448 36.2452 32.7385 36.2452 33.1319C36.2452 33.5253 36.0953 33.919 35.7954 34.218L35.085 34.9261C35.3849 34.6272 35.5349 34.2335 35.5349 33.8401C35.5349 33.4467 35.3849 33.0531 35.085 32.754L31.5153 29.1955C31.2154 28.8966 30.8205 28.747 30.4259 28.747C30.0316 28.747 29.6369 28.8964 29.337 29.195Z" fill="#C1B6F2"/>
</svg>
