<svg width="20" height="20" viewBox="0 0 20 20" fill="none" xmlns="http://www.w3.org/2000/svg">
<g clip-path="url(#clip0_38_205097)">
<path d="M17.2439 5.20312C16.5408 2.92969 14.6892 1.07809 12.4158 0.375C11.6189 0.128867 10.7986 0 10.0017 0C8.3728 0 6.80253 0.503906 5.49003 1.48832C3.54464 2.91797 2.38452 5.20312 2.38452 7.61719C2.38452 9.28121 2.91187 10.8633 3.90796 12.1875L10.0017 20L16.0955 12.1875C17.5837 10.1953 18.0056 7.65238 17.2439 5.20312ZM10.0017 11.7188C7.73999 11.7188 5.90015 9.87891 5.90015 7.61719C5.90015 5.35547 7.73999 3.51562 10.0017 3.51562C12.2634 3.51562 14.1033 5.35547 14.1033 7.61719C14.1033 9.87891 12.2634 11.7188 10.0017 11.7188Z" fill="#6D45AE"/>
<path d="M3.90454 12.1875L9.99829 20V11.7188C7.73657 11.7188 5.89673 9.87891 5.89673 7.61719C5.89673 5.35547 7.73657 3.51562 9.99829 3.51562V0C9.20142 0 8.3811 0.128906 7.58423 0.375C5.31079 1.07809 3.45919 2.92969 2.7561 5.20312C1.99438 7.65238 2.4163 10.1953 3.90454 12.1875Z" fill="#8F46DA"/>
</g>
<defs>
<clipPath id="clip0_38_205097">
<rect width="20" height="20" fill="white" transform="matrix(-1 0 0 1 20 0)"/>
</clipPath>
</defs>
</svg>
