<svg width="25" height="27" viewBox="0 0 25 27" fill="none" xmlns="http://www.w3.org/2000/svg">
<path d="M22.7276 15.5411H14.4678V24.2183C14.4678 25.3454 13.5973 26.2598 12.5244 26.2598C11.4515 26.2598 10.5811 25.3454 10.5811 24.2183V15.5411H2.32127C1.24836 15.5411 0.37793 14.6267 0.37793 13.4995C0.37793 12.3724 1.24836 11.458 2.32127 11.458H10.5811V2.7808C10.5811 1.65367 11.4515 0.739258 12.5244 0.739258C13.5973 0.739258 14.4678 1.65367 14.4678 2.7808V11.458H22.7276C23.8005 11.458 24.6709 12.3724 24.6709 13.4995C24.6709 14.6267 23.8005 15.5411 22.7276 15.5411Z" fill="white"/>
</svg>
