<svg width="23" height="23" viewBox="0 0 23 23" fill="none" xmlns="http://www.w3.org/2000/svg">
<g clip-path="url(#clip0_38_212710)">
<path d="M4.37582 2.77637L3.68164 4.16456V13.8829H5.07001V4.16456L4.37582 2.77637Z" fill="#6D45AE"/>
<path d="M2.63965 0.718969L3.68092 4.16497H5.06929L6.11056 0.718969C5.15211 -0.239656 3.5981 -0.239656 2.63965 0.718969Z" fill="#8F46DA"/>
<path d="M6.80505 12.8887L4.02832 16.6363L6.11087 23.0003H7.14881C7.34605 23.0003 7.50959 22.8476 7.5231 22.6508L8.16587 13.2896C8.18078 13.0727 8.00882 12.8887 7.7914 12.8887H6.80505Z" fill="#474867"/>
<path d="M0.584886 13.2896L1.22765 22.6508C1.24117 22.8476 1.40471 23.0003 1.60195 23.0003H6.1108L6.80498 12.8887H0.959177C0.741937 12.8887 0.569971 13.0727 0.584886 13.2896Z" fill="#616281"/>
<path d="M16.1764 4.85938L15.0195 9.71866H17.5648V5.55759C17.5648 5.17207 17.2521 4.85938 16.8666 4.85938H16.1764Z" fill="#DCD9E1"/>
<path d="M14.0938 5.55759V9.71866H16.1763V4.85938H14.792C14.4064 4.85938 14.0938 5.17207 14.0938 5.55759Z" fill="#EFECF4"/>
<path d="M21.0353 7.63574L18.2588 22.9999H19.6472C20.7925 22.9999 21.7718 22.0637 21.8236 20.9196L22.3907 8.36537C22.4088 7.96792 22.0914 7.63574 21.6934 7.63574H21.0353Z" fill="#EFECF4"/>
<path d="M9.96484 7.63574C9.56686 7.63574 9.24942 7.96792 9.26732 8.36537L9.83446 20.9196C9.88623 22.0637 10.8657 22.9999 12.0111 22.9999H18.2585C19.4039 22.9999 20.3834 22.0637 20.435 20.9196L20.6531 16.0624L10.6241 7.63574H9.96484Z" fill="#EFECF4"/>
<path d="M19.6451 7.63574L16.2998 20.2232C18.5905 20.2232 20.5493 18.3508 20.6528 16.0625L21.0334 7.63574H19.6451Z" fill="#6D45AE"/>
<path d="M19.2646 16.0625L19.6452 7.63574H10.624L11.0048 16.0625C11.1082 18.3508 13.067 20.2232 15.3577 20.2232H16.3C17.8601 20.2232 19.1941 18.3508 19.2646 16.0625Z" fill="#8F46DA"/>
<path d="M17.9114 6.59457H13.7463C13.5547 6.59457 13.3994 6.43928 13.3994 6.24748C13.3994 6.05586 13.5547 5.90039 13.7463 5.90039H17.9114C18.103 5.90039 18.2585 6.05586 18.2585 6.24748C18.2585 6.43928 18.103 6.59457 17.9114 6.59457Z" fill="#C4A5E3"/>
</g>
<defs>
<clipPath id="clip0_38_212710">
<rect width="23" height="23" fill="white"/>
</clipPath>
</defs>
</svg>
