<svg width="52" height="51" viewBox="0 0 52 51" fill="none" xmlns="http://www.w3.org/2000/svg">
<ellipse cx="25.7984" cy="25.5" rx="25.5797" ry="25.5" fill="#41BDF4"/>
<g clip-path="url(#clip0_223_49659)">
<path d="M26.8997 31.8825L22.4023 36.3665C22.2677 36.4473 22.0926 36.6493 21.729 36.5415C21.5406 36.4742 21.3116 36.2587 21.2713 36.0164V36.0029L19.9786 28.2739L21.0289 27.4795C21.1649 27.5593 23.7603 29.0811 23.6007 28.9876L26.8997 30.9266C27.1556 31.1958 27.1556 31.6133 26.8997 31.8825Z" fill="#A9C9DD"/>
<path d="M37.4481 15.7428L33.3632 36.0301C33.3228 36.2455 33.1613 36.434 32.9458 36.5148C32.865 36.5552 32.7842 36.5687 32.7034 36.5687C32.5688 36.5687 32.4341 36.5283 32.313 36.4475C32.1775 36.3507 22.2562 29.2641 22.8873 29.7149C16.88 26.7391 20.0135 28.3032 14.8575 25.7292C14.6152 25.608 14.4805 25.3656 14.4805 25.1098C14.494 24.8405 14.6421 24.6116 14.8845 24.5039L36.5189 14.9888C36.7479 14.8945 37.0172 14.9215 37.2057 15.083C37.2326 15.11 37.273 15.1504 37.2999 15.1773C37.4346 15.3389 37.4884 15.5409 37.4481 15.7428Z" fill="white"/>
<path d="M37.2996 15.1777L23.6006 28.9882L22.887 29.7153L21.729 36.5421C21.5405 36.4748 21.3115 36.2593 21.2712 36.017V36.0035L19.9785 28.2745L21.0288 27.4801L37.2996 15.1777Z" fill="#C8DAEA"/>
</g>
<defs>
<clipPath id="clip0_223_49659">
<rect width="22.9806" height="22.9806" fill="white" transform="translate(14.4825 14.2637)"/>
</clipPath>
</defs>
</svg>
