<svg width="60" height="60" viewBox="0 0 60 60" fill="none" xmlns="http://www.w3.org/2000/svg">
<circle cx="30" cy="30" r="30" fill="url(#paint0_radial_135_156320)"/>
<ellipse cx="29.6175" cy="30.4553" rx="23.2543" ry="23.1818" fill="#41BDF4"/>
<g clip-path="url(#clip0_135_156320)">
<path d="M30.6201 36.2581L26.5315 40.3345C26.4092 40.4079 26.25 40.5916 25.9195 40.4936C25.7481 40.4324 25.54 40.2365 25.5033 40.0162V40.004L24.3281 32.9776L25.283 32.2554C25.4066 32.3279 27.766 33.7114 27.621 33.6264L30.6201 35.3891C30.8527 35.6339 30.8527 36.0134 30.6201 36.2581Z" fill="#A9C9DD"/>
<path d="M40.2077 21.5856L36.4942 40.0286C36.4575 40.2244 36.3106 40.3958 36.1148 40.4692C36.0413 40.506 35.9679 40.5182 35.8944 40.5182C35.772 40.5182 35.6496 40.4815 35.5394 40.408C35.4163 40.3201 26.3969 33.8777 26.9707 34.2875C21.5095 31.5822 24.3581 33.0041 19.6709 30.6641C19.4505 30.5539 19.3281 30.3336 19.3281 30.101C19.3404 29.8562 19.475 29.6481 19.6954 29.5502L39.3631 20.9001C39.5712 20.8144 39.816 20.8389 39.9874 20.9858C40.0118 21.0103 40.0486 21.047 40.0731 21.0715C40.1955 21.2184 40.2444 21.402 40.2077 21.5856Z" fill="white"/>
<path d="M40.0746 21.0715L27.621 33.6265L26.9722 34.2875L25.9195 40.4937C25.7481 40.4325 25.54 40.2366 25.5033 40.0163V40.0041L24.3281 32.9777L25.283 32.2555L40.0746 21.0715Z" fill="#C8DAEA"/>
</g>
<defs>
<radialGradient id="paint0_radial_135_156320" cx="0" cy="0" r="1" gradientUnits="userSpaceOnUse" gradientTransform="translate(30 30) rotate(130.135) scale(30.322 34.1126)">
<stop stop-color="#52CFFF"/>
<stop offset="1" stop-color="#52CFFF" stop-opacity="0"/>
</radialGradient>
<clipPath id="clip0_135_156320">
<rect width="20.8915" height="20.8915" fill="white" transform="translate(19.332 20.2405)"/>
</clipPath>
</defs>
</svg>
