<svg width="63" height="62" viewBox="0 0 63 62" fill="none" xmlns="http://www.w3.org/2000/svg">
<path d="M60.6938 31C60.6938 47.288 47.4472 60.5 31.0969 60.5C14.7466 60.5 1.5 47.288 1.5 31C1.5 14.712 14.7466 1.5 31.0969 1.5C47.4472 1.5 60.6938 14.712 60.6938 31Z" fill="#41BDF4" stroke="white" stroke-width="3"/>
<g clip-path="url(#clip0_189_118003)">
<path d="M32.4357 38.759L26.9682 44.2101C26.8046 44.3083 26.5918 44.5539 26.1497 44.4229C25.9206 44.341 25.6423 44.079 25.5932 43.7844V43.7681L24.0217 34.372L25.2986 33.4062C25.4639 33.5032 28.6191 35.3533 28.4251 35.2396L32.4356 37.5968C32.7467 37.9242 32.7467 38.4316 32.4357 38.759Z" fill="#A9C9DD"/>
<path d="M45.2591 19.1384L40.2933 43.8013C40.2442 44.0632 40.0477 44.2924 39.7858 44.3906C39.6876 44.4397 39.5894 44.4561 39.4912 44.4561C39.3275 44.4561 39.1638 44.407 39.0165 44.3087C38.8518 44.1911 26.7906 35.5759 27.5578 36.124C20.2548 32.5063 24.0642 34.4078 17.7961 31.2786C17.5015 31.1313 17.3378 30.8367 17.3378 30.5256C17.3542 30.1982 17.5342 29.92 17.8289 29.789L44.1296 18.2217C44.4079 18.1071 44.7353 18.1398 44.9645 18.3363C44.9972 18.369 45.0463 18.4181 45.0791 18.4508C45.2428 18.6473 45.3082 18.8928 45.2591 19.1384Z" fill="white"/>
<path d="M45.0787 18.4512L28.425 35.2404L27.5575 36.1243L26.1496 44.4236C25.9205 44.3418 25.6422 44.0798 25.5931 43.7852V43.7688L24.0216 34.3727L25.2985 33.407L45.0787 18.4512Z" fill="#C8DAEA"/>
</g>
<defs>
<clipPath id="clip0_189_118003">
<rect width="27.9373" height="27.9373" fill="white" transform="translate(17.3402 17.3403)"/>
</clipPath>
</defs>
</svg>
