<svg width="12" height="11" viewBox="0 0 12 11" fill="none" xmlns="http://www.w3.org/2000/svg">
<path d="M10.086 10.9994C9.96536 11.0001 9.84581 10.977 9.73416 10.9314C9.62251 10.8858 9.52096 10.8186 9.43534 10.7337L4.85348 6.1518C4.68092 5.97924 4.58398 5.74521 4.58398 5.50117C4.58398 5.38034 4.60778 5.26069 4.65402 5.14906C4.70026 5.03743 4.76804 4.93599 4.85348 4.85055C4.93892 4.76511 5.04036 4.69733 5.15199 4.65109C5.26362 4.60485 5.38327 4.58105 5.5041 4.58105C5.74814 4.58105 5.98217 4.678 6.15473 4.85055L10.7366 9.43241C10.8225 9.5176 10.8906 9.61895 10.9372 9.73061C10.9837 9.84228 11.0076 9.96206 11.0076 10.083C11.0076 10.204 10.9837 10.3238 10.9372 10.4354C10.8906 10.5471 10.8225 10.6485 10.7366 10.7337C10.651 10.8186 10.5494 10.8858 10.4378 10.9314C10.3261 10.977 10.2066 11.0001 10.086 10.9994Z" fill="#7E679B"/>
<path d="M0.921684 10.9994C0.801084 11.0001 0.681532 10.977 0.569884 10.9314C0.458235 10.8858 0.356687 10.8186 0.271061 10.7337C0.185171 10.6485 0.116998 10.5471 0.0704755 10.4354C0.0239525 10.3238 0 10.204 0 10.083C0 9.96206 0.0239525 9.84228 0.0704755 9.73061C0.116998 9.61895 0.185171 9.5176 0.271061 9.43241L4.85292 4.85055C5.02547 4.678 5.25951 4.58105 5.50354 4.58105C5.74757 4.58105 5.98161 4.678 6.15416 4.85055C6.32672 5.02311 6.42366 5.25714 6.42366 5.50117C6.42366 5.74521 6.32672 5.97924 6.15416 6.1518L1.57231 10.7337C1.48668 10.8186 1.38513 10.8858 1.27348 10.9314C1.16184 10.977 1.04228 11.0001 0.921684 10.9994Z" fill="#7E679B"/>
<path d="M5.50372 6.41835C5.38312 6.41904 5.26356 6.39593 5.15191 6.35033C5.04027 6.30472 4.93872 6.23753 4.85309 6.1526C4.7672 6.06741 4.69903 5.96606 4.65251 5.85439C4.60598 5.74272 4.58203 5.62295 4.58203 5.50197C4.58203 5.381 4.60598 5.26123 4.65251 5.14956C4.69903 5.03789 4.7672 4.93654 4.85309 4.85135L9.43495 0.269497C9.52039 0.184056 9.62182 0.11628 9.73346 0.0700394C9.84509 0.023799 9.96474 0 10.0856 0C10.2064 0 10.3261 0.023799 10.4377 0.0700394C10.5493 0.11628 10.6508 0.184056 10.7362 0.269497C10.8216 0.354938 10.8894 0.456371 10.9357 0.568005C10.9819 0.679639 11.0057 0.799288 11.0057 0.92012C11.0057 1.04095 10.9819 1.1606 10.9357 1.27224C10.8894 1.38387 10.8216 1.4853 10.7362 1.57074L6.15434 6.1526C6.06871 6.23753 5.96717 6.30472 5.85552 6.35033C5.74387 6.39593 5.62432 6.41904 5.50372 6.41835Z" fill="#7E679B"/>
<path d="M5.50393 6.41835C5.38333 6.41904 5.26378 6.39593 5.15213 6.35033C5.04048 6.30472 4.93893 6.23753 4.8533 6.1526L0.27145 1.57074C0.0988937 1.39819 0.00195312 1.16415 0.00195312 0.92012C0.00195313 0.676089 0.0988937 0.442053 0.27145 0.269497C0.444006 0.0969406 0.678042 4.81043e-09 0.922073 0C1.1661 -4.81044e-09 1.40014 0.0969406 1.5727 0.269497L6.15455 4.85135C6.24044 4.93654 6.30861 5.03789 6.35514 5.14956C6.40166 5.26123 6.42561 5.381 6.42561 5.50197C6.42561 5.62295 6.40166 5.74272 6.35514 5.85439C6.30861 5.96606 6.24044 6.06741 6.15455 6.1526C6.06892 6.23753 5.96738 6.30472 5.85573 6.35033C5.74408 6.39593 5.62453 6.41904 5.50393 6.41835Z" fill="#7E679B"/>
</svg>
