<svg width="31" height="27" viewBox="0 0 31 27" fill="none" xmlns="http://www.w3.org/2000/svg">
<path d="M15.8624 18.6953C15.3451 19.1077 14.7033 19.3326 14.0417 19.3333C13.658 19.3346 13.278 19.2596 12.9236 19.1127C12.5692 18.9657 12.2476 18.7498 11.9774 18.4774L7.60389 14.1039C7.33184 13.8333 7.11584 13.5118 6.96827 13.1576C6.8207 12.8035 6.74446 12.4237 6.74392 12.04C6.74338 11.6564 6.81855 11.2764 6.96512 10.9218C7.11169 10.5672 7.32678 10.2451 7.59806 9.97379C7.86935 9.7025 8.1915 9.4874 8.54606 9.34082C8.90062 9.19424 9.28062 9.11906 9.66429 9.11959C10.0479 9.12012 10.4277 9.19634 10.7819 9.3439C11.136 9.49146 11.4576 9.70745 11.7281 9.97949L14.2574 12.5088L23.8629 4.82352C21.7163 2.39013 18.7491 0.832032 15.5273 0.446417C12.3054 0.0608013 9.05429 0.874652 6.39408 2.73274C3.73387 4.59082 1.8507 7.36312 1.10376 10.5209C0.356816 13.6786 0.798369 17.0008 2.3442 19.8538C3.89003 22.7068 6.43196 24.8909 9.48516 25.9897C12.5384 27.0884 15.8892 27.0248 18.8985 25.811C21.9078 24.5972 24.365 22.3181 25.8014 19.4085C27.2379 16.4989 27.553 13.1623 26.6868 10.0352L15.8624 18.6953Z" fill="#E1D2F9"/>
<path d="M14.0417 17.8749C13.85 17.8752 13.6602 17.8376 13.4831 17.7643C13.3061 17.6909 13.1452 17.5833 13.0099 17.4476L8.63489 13.0726C8.36495 12.7984 8.21433 12.4287 8.21583 12.0439C8.21734 11.6591 8.37085 11.2906 8.64292 11.0185C8.91499 10.7464 9.28356 10.5929 9.66832 10.5914C10.0531 10.5899 10.4228 10.7406 10.697 11.0105L14.1492 14.4627L27.7135 3.61061C28.0158 3.37039 28.401 3.25983 28.7847 3.30317C29.1684 3.34651 29.5192 3.54021 29.7603 3.84181C30.0014 4.14342 30.1131 4.52831 30.0708 4.91211C30.0286 5.29591 29.8359 5.64731 29.535 5.88926L14.9516 17.5559C14.6934 17.7626 14.3725 17.8751 14.0417 17.8749Z" fill="#8F46DA"/>
</svg>
