<svg width="23" height="23" viewBox="0 0 23 23" fill="none" xmlns="http://www.w3.org/2000/svg">
<g clip-path="url(#clip0_38_216592)">
<path d="M16.8763 5.53925C16.8763 7.06151 16.3304 8.37916 15.2535 9.45623C14.1766 10.5331 12.8587 11.079 11.3365 11.079H11.3338C9.81352 11.0785 8.49657 10.5326 7.41968 9.45623C6.34261 8.37916 5.79688 7.06151 5.79688 5.53925C5.79688 4.01752 6.34261 2.6997 7.41968 1.6228C8.49605 0.546257 9.813 0.00052643 11.3338 0H11.3365C12.8582 0 14.176 0.545906 15.2535 1.6228C16.3304 2.6997 16.8763 4.01752 16.8763 5.53925Z" fill="#FFBB85"/>
<path d="M21.0759 19.0447C21.0759 20.2456 20.6939 21.2179 19.9415 21.9341C19.1978 22.6418 18.2142 23.0003 17.0184 23.0003H5.94373C4.74786 23.0003 3.76431 22.6418 3.02117 21.9341C2.2682 21.2174 1.88672 20.2453 1.88672 19.0447C1.88672 18.5828 1.90199 18.1259 1.93252 17.6865C1.96358 17.2373 2.0264 16.7484 2.11905 16.2327C2.2124 15.7127 2.33243 15.2212 2.47614 14.772C2.6253 14.307 2.8271 13.8483 3.0768 13.4089C3.33615 12.9529 3.64078 12.5556 3.98225 12.2285C4.34023 11.8861 4.77786 11.6112 5.28376 11.4108C5.7879 11.2114 6.34679 11.1104 6.94482 11.1104C7.17943 11.1104 7.40667 11.2063 7.84466 11.4917C8.11875 11.6705 8.43461 11.874 8.78328 12.0969C9.0844 12.2888 9.4922 12.4689 9.99635 12.6316C10.4394 12.7749 10.8892 12.8549 11.3335 12.8688C11.3824 12.8706 11.4314 12.8714 11.4803 12.8714C11.9738 12.8714 12.4728 12.7905 12.9649 12.6316C13.469 12.4689 13.8773 12.2888 14.1783 12.0969C14.5306 11.8717 14.8465 11.6684 15.1166 11.4922C15.5549 11.2063 15.7818 11.1104 16.0169 11.1104C16.6144 11.1104 17.1733 11.2114 17.6778 11.4108C18.1837 11.6112 18.6213 11.8867 18.979 12.2285C19.321 12.5556 19.6256 12.9529 19.8848 13.4089C20.1347 13.8487 20.3368 14.307 20.4854 14.7715C20.6293 15.2212 20.7497 15.7127 20.843 16.233C20.9352 16.7493 20.9982 17.2382 21.0291 17.6861C21.0601 18.1241 21.0754 18.5811 21.0759 19.0447Z" fill="#8F46DA"/>
<path d="M11.3347 11.079H11.332V0H11.3347C12.8564 0 14.1742 0.545906 15.2516 1.6228C16.3285 2.6997 16.8744 4.01752 16.8744 5.53925C16.8744 7.06151 16.3285 8.37916 15.2516 9.45623C14.1747 10.5331 12.8569 11.079 11.3347 11.079Z" fill="#F5A86C"/>
<path d="M21.0764 19.0447C21.0764 20.2456 20.6944 21.2179 19.942 21.9341C19.1983 22.6418 18.2148 23.0003 17.0189 23.0003H11.334V12.8688C11.3829 12.8706 11.4319 12.8714 11.4809 12.8714C11.9743 12.8714 12.4734 12.7905 12.9654 12.6316C13.4695 12.4689 13.8779 12.2888 14.1788 12.0969C14.5312 11.8717 14.847 11.6684 15.1171 11.4922C15.5554 11.2063 15.7823 11.1104 16.0174 11.1104C16.6149 11.1104 17.1738 11.2114 17.6783 11.4108C18.1842 11.6112 18.6219 11.8867 18.9795 12.2285C19.3215 12.5556 19.6261 12.9529 19.8853 13.4089C20.1352 13.8487 20.3373 14.307 20.4859 14.7715C20.6298 15.2212 20.7502 15.7127 20.8436 16.233C20.9357 16.7493 20.9987 17.2382 21.0296 17.6861C21.0606 18.1241 21.0759 18.5811 21.0764 19.0447Z" fill="#6D45AE"/>
</g>
<defs>
<clipPath id="clip0_38_216592">
<rect width="23" height="23" fill="white"/>
</clipPath>
</defs>
</svg>
